<?xml version="1.0" encoding="UTF-8" standalone="no"?>
<!DOCTYPE svg PUBLIC "-//W3C//DTD SVG 1.1//EN"
 "http://www.w3.org/Graphics/SVG/1.1/DTD/svg11.dtd">
<!-- Generated by graphviz version 2.40.1 (20161225.0304)
 -->
<!-- Title: dependencies Pages: 1 -->
<svg width="876pt" height="211pt"
 viewBox="0.00 0.00 876.00 211.00" xmlns="http://www.w3.org/2000/svg" xmlns:xlink="http://www.w3.org/1999/xlink">
<g id="graph0" class="graph" transform="scale(1 1) rotate(0) translate(4 207)">
<title>dependencies</title>
<polygon fill="#ffffff" stroke="transparent" points="-4,4 -4,-207 872,-207 872,4 -4,4"/>
<text text-anchor="start" x="413.0091" y="-42.4" font-family="sans-serif" font-weight="bold" font-size="14.00" fill="#000000">Legend</text>
<polygon fill="#ffffb3" stroke="transparent" points="200,-10 200,-30 220,-30 220,-10 200,-10"/>
<text text-anchor="start" x="223.629" y="-15.4" font-family="sans-serif" font-size="14.00" fill="#000000"> &#160;Declarations</text>
<polygon fill="#8dd3c7" stroke="transparent" points="313,-10 313,-30 333,-30 333,-10 313,-10"/>
<text text-anchor="start" x="336.7251" y="-15.4" font-family="sans-serif" font-size="14.00" fill="#000000"> &#160;Module</text>
<polygon fill="#80b1d3" stroke="transparent" points="399,-10 399,-30 419,-30 419,-10 399,-10"/>
<text text-anchor="start" x="422.7812" y="-15.4" font-family="sans-serif" font-size="14.00" fill="#000000"> &#160;Bootstrap</text>
<polygon fill="#fdb462" stroke="transparent" points="496,-10 496,-30 516,-30 516,-10 496,-10"/>
<text text-anchor="start" x="519.6732" y="-15.4" font-family="sans-serif" font-size="14.00" fill="#000000"> &#160;Providers</text>
<polygon fill="#fb8072" stroke="transparent" points="592,-10 592,-30 612,-30 612,-10 592,-10"/>
<text text-anchor="start" x="615.7258" y="-15.4" font-family="sans-serif" font-size="14.00" fill="#000000"> &#160;Exports</text>
<g id="clust1" class="cluster">
<title>cluster_CajaModule</title>
<polygon fill="none" stroke="#000000" stroke-dasharray="1,5" points="8,-70 8,-195 860,-195 860,-70 8,-70"/>
</g>
<g id="clust2" class="cluster">
<title>cluster_CajaModule_declarations</title>
<polygon fill="none" stroke="#000000" points="434,-78 434,-130 852,-130 852,-78 434,-78"/>
</g>
<g id="clust6" class="cluster">
<title>cluster_CajaModule_imports</title>
<polygon fill="none" stroke="#000000" points="280,-78 280,-130 426,-130 426,-78 280,-78"/>
</g>
<g id="clust9" class="cluster">
<title>cluster_CajaModule_providers</title>
<polygon fill="none" stroke="#000000" points="16,-78 16,-130 272,-130 272,-78 16,-78"/>
</g>
<!-- CajaComponent -->
<g id="node1" class="node">
<title>CajaComponent</title>
<polygon fill="#ffffb3" stroke="#000000" points="844.4888,-122 737.5112,-122 737.5112,-86 844.4888,-86 844.4888,-122"/>
<text text-anchor="middle" x="791" y="-99.8" font-family="Times,serif" font-size="14.00" fill="#000000">CajaComponent</text>
</g>
<!-- CajaModule -->
<g id="node4" class="node">
<title>CajaModule</title>
<polygon fill="#8dd3c7" stroke="#000000" points="471.7065,-187 468.7065,-191 447.7065,-191 444.7065,-187 386.2935,-187 386.2935,-151 471.7065,-151 471.7065,-187"/>
<text text-anchor="middle" x="429" y="-164.8" font-family="Times,serif" font-size="14.00" fill="#000000">CajaModule</text>
</g>
<!-- CajaComponent&#45;&gt;CajaModule -->
<g id="edge1" class="edge">
<title>CajaComponent&#45;&gt;CajaModule</title>
<path fill="none" stroke="#000000" d="M791,-122.2843C791,-143.3211 791,-175 791,-175 791,-175 481.9477,-175 481.9477,-175"/>
<polygon fill="#000000" stroke="#000000" points="481.9477,-171.5001 471.9477,-175 481.9477,-178.5001 481.9477,-171.5001"/>
</g>
<!-- CajaEditComponent -->
<g id="node2" class="node">
<title>CajaEditComponent</title>
<polygon fill="#ffffb3" stroke="#000000" points="719.323,-122 588.677,-122 588.677,-86 719.323,-86 719.323,-122"/>
<text text-anchor="middle" x="654" y="-99.8" font-family="Times,serif" font-size="14.00" fill="#000000">CajaEditComponent</text>
</g>
<!-- CajaEditComponent&#45;&gt;CajaModule -->
<g id="edge2" class="edge">
<title>CajaEditComponent&#45;&gt;CajaModule</title>
<path fill="none" stroke="#000000" d="M654,-122.0225C654,-139.3734 654,-163 654,-163 654,-163 481.8504,-163 481.8504,-163"/>
<polygon fill="#000000" stroke="#000000" points="481.8504,-159.5001 471.8504,-163 481.8503,-166.5001 481.8504,-159.5001"/>
</g>
<!-- CajaListComponent -->
<g id="node3" class="node">
<title>CajaListComponent</title>
<polygon fill="#ffffb3" stroke="#000000" points="570.2674,-122 441.7326,-122 441.7326,-86 570.2674,-86 570.2674,-122"/>
<text text-anchor="middle" x="506" y="-99.8" font-family="Times,serif" font-size="14.00" fill="#000000">CajaListComponent</text>
</g>
<!-- CajaListComponent&#45;&gt;CajaModule -->
<g id="edge3" class="edge">
<title>CajaListComponent&#45;&gt;CajaModule</title>
<path fill="none" stroke="#000000" d="M456.6098,-122.1061C456.6098,-122.1061 456.6098,-140.991 456.6098,-140.991"/>
<polygon fill="#000000" stroke="#000000" points="453.1098,-140.9909 456.6098,-150.991 460.1098,-140.991 453.1098,-140.9909"/>
</g>
<!-- CajaRoutingModule -->
<g id="node5" class="node">
<title>CajaRoutingModule</title>
<polygon fill="#8dd3c7" stroke="#000000" points="418.3244,-122 415.3244,-126 394.3244,-126 391.3244,-122 287.6756,-122 287.6756,-86 418.3244,-86 418.3244,-122"/>
<text text-anchor="middle" x="353" y="-99.8" font-family="Times,serif" font-size="14.00" fill="#000000">CajaRoutingModule</text>
</g>
<!-- CajaRoutingModule&#45;&gt;CajaModule -->
<g id="edge4" class="edge">
<title>CajaRoutingModule&#45;&gt;CajaModule</title>
<path fill="none" stroke="#000000" d="M402.2795,-122.1061C402.2795,-122.1061 402.2795,-140.991 402.2795,-140.991"/>
<polygon fill="#000000" stroke="#000000" points="398.7795,-140.9909 402.2795,-150.991 405.7795,-140.991 398.7795,-140.9909"/>
</g>
<!-- CajaService -->
<g id="node6" class="node">
<title>CajaService</title>
<ellipse fill="#fdb462" stroke="#000000" cx="206" cy="-104" rx="57.879" ry="18"/>
<text text-anchor="middle" x="206" y="-99.8" font-family="Times,serif" font-size="14.00" fill="#000000">CajaService</text>
</g>
<!-- CajaService&#45;&gt;CajaModule -->
<g id="edge5" class="edge">
<title>CajaService&#45;&gt;CajaModule</title>
<path fill="none" stroke="#000000" d="M206,-122.0225C206,-139.3734 206,-163 206,-163 206,-163 376.2672,-163 376.2672,-163"/>
<polygon fill="#000000" stroke="#000000" points="376.2672,-166.5001 386.2672,-163 376.2672,-159.5001 376.2672,-166.5001"/>
</g>
<!-- ServiceUrl -->
<g id="node7" class="node">
<title>ServiceUrl</title>
<ellipse fill="#fdb462" stroke="#000000" cx="77" cy="-104" rx="52.7238" ry="18"/>
<text text-anchor="middle" x="77" y="-99.8" font-family="Times,serif" font-size="14.00" fill="#000000">ServiceUrl</text>
</g>
<!-- ServiceUrl&#45;&gt;CajaModule -->
<g id="edge6" class="edge">
<title>ServiceUrl&#45;&gt;CajaModule</title>
<path fill="none" stroke="#000000" d="M77,-122.2843C77,-143.3211 77,-175 77,-175 77,-175 376.1898,-175 376.1898,-175"/>
<polygon fill="#000000" stroke="#000000" points="376.1898,-178.5001 386.1898,-175 376.1898,-171.5001 376.1898,-178.5001"/>
</g>
</g>
</svg>
