<?xml version="1.0" encoding="UTF-8" standalone="no"?>
<!DOCTYPE svg PUBLIC "-//W3C//DTD SVG 1.1//EN"
 "http://www.w3.org/Graphics/SVG/1.1/DTD/svg11.dtd">
<!-- Generated by graphviz version 2.40.1 (20161225.0304)
 -->
<!-- Title: dependencies Pages: 1 -->
<svg width="1379pt" height="211pt"
 viewBox="0.00 0.00 1379.00 211.00" xmlns="http://www.w3.org/2000/svg" xmlns:xlink="http://www.w3.org/1999/xlink">
<g id="graph0" class="graph" transform="scale(1 1) rotate(0) translate(4 207)">
<title>dependencies</title>
<polygon fill="#ffffff" stroke="transparent" points="-4,4 -4,-207 1375,-207 1375,4 -4,4"/>
<text text-anchor="start" x="664.5091" y="-42.4" font-family="sans-serif" font-weight="bold" font-size="14.00" fill="#000000">Legend</text>
<polygon fill="#ffffb3" stroke="transparent" points="451.5,-10 451.5,-30 471.5,-30 471.5,-10 451.5,-10"/>
<text text-anchor="start" x="475.129" y="-15.4" font-family="sans-serif" font-size="14.00" fill="#000000"> &#160;Declarations</text>
<polygon fill="#8dd3c7" stroke="transparent" points="564.5,-10 564.5,-30 584.5,-30 584.5,-10 564.5,-10"/>
<text text-anchor="start" x="588.2251" y="-15.4" font-family="sans-serif" font-size="14.00" fill="#000000"> &#160;Module</text>
<polygon fill="#80b1d3" stroke="transparent" points="650.5,-10 650.5,-30 670.5,-30 670.5,-10 650.5,-10"/>
<text text-anchor="start" x="674.2812" y="-15.4" font-family="sans-serif" font-size="14.00" fill="#000000"> &#160;Bootstrap</text>
<polygon fill="#fdb462" stroke="transparent" points="747.5,-10 747.5,-30 767.5,-30 767.5,-10 747.5,-10"/>
<text text-anchor="start" x="771.1732" y="-15.4" font-family="sans-serif" font-size="14.00" fill="#000000"> &#160;Providers</text>
<polygon fill="#fb8072" stroke="transparent" points="843.5,-10 843.5,-30 863.5,-30 863.5,-10 843.5,-10"/>
<text text-anchor="start" x="867.2258" y="-15.4" font-family="sans-serif" font-size="14.00" fill="#000000"> &#160;Exports</text>
<g id="clust1" class="cluster">
<title>cluster_Aplica_Mov_edosctaModule</title>
<polygon fill="none" stroke="#000000" stroke-dasharray="1,5" points="8,-70 8,-195 1363,-195 1363,-70 8,-70"/>
</g>
<g id="clust2" class="cluster">
<title>cluster_Aplica_Mov_edosctaModule_declarations</title>
<polygon fill="none" stroke="#000000" points="766,-78 766,-130 1355,-130 1355,-78 766,-78"/>
</g>
<g id="clust9" class="cluster">
<title>cluster_Aplica_Mov_edosctaModule_providers</title>
<polygon fill="none" stroke="#000000" points="16,-78 16,-130 758,-130 758,-78 16,-78"/>
</g>
<!-- AplicaBonificacionComponent -->
<g id="node1" class="node">
<title>AplicaBonificacionComponent</title>
<polygon fill="#ffffb3" stroke="#000000" points="1347.4622,-122 1156.5378,-122 1156.5378,-86 1347.4622,-86 1347.4622,-122"/>
<text text-anchor="middle" x="1252" y="-99.8" font-family="Times,serif" font-size="14.00" fill="#000000">AplicaBonificacionComponent</text>
</g>
<!-- Aplica_Mov_edosctaModule -->
<g id="node4" class="node">
<title>Aplica_Mov_edosctaModule</title>
<polygon fill="#8dd3c7" stroke="#000000" points="744.7906,-187 741.7906,-191 720.7906,-191 717.7906,-187 565.2094,-187 565.2094,-151 744.7906,-151 744.7906,-187"/>
<text text-anchor="middle" x="655" y="-164.8" font-family="Times,serif" font-size="14.00" fill="#000000">Aplica_Mov_edosctaModule</text>
</g>
<!-- AplicaBonificacionComponent&#45;&gt;Aplica_Mov_edosctaModule -->
<g id="edge1" class="edge">
<title>AplicaBonificacionComponent&#45;&gt;Aplica_Mov_edosctaModule</title>
<path fill="none" stroke="#000000" d="M1252,-122.2921C1252,-144.2057 1252,-178 1252,-178 1252,-178 754.6999,-178 754.6999,-178"/>
<polygon fill="#000000" stroke="#000000" points="754.6999,-174.5001 744.6999,-178 754.6999,-181.5001 754.6999,-174.5001"/>
</g>
<!-- Aplica_Mov_edosctaListComponent -->
<g id="node2" class="node">
<title>Aplica_Mov_edosctaListComponent</title>
<polygon fill="#ffffb3" stroke="#000000" points="1138.3514,-122 915.6486,-122 915.6486,-86 1138.3514,-86 1138.3514,-122"/>
<text text-anchor="middle" x="1027" y="-99.8" font-family="Times,serif" font-size="14.00" fill="#000000">Aplica_Mov_edosctaListComponent</text>
</g>
<!-- Aplica_Mov_edosctaListComponent&#45;&gt;Aplica_Mov_edosctaModule -->
<g id="edge2" class="edge">
<title>Aplica_Mov_edosctaListComponent&#45;&gt;Aplica_Mov_edosctaModule</title>
<path fill="none" stroke="#000000" d="M1027,-122.1061C1027,-141.3391 1027,-169 1027,-169 1027,-169 755.0508,-169 755.0508,-169"/>
<polygon fill="#000000" stroke="#000000" points="755.0509,-165.5001 745.0508,-169 755.0508,-172.5001 755.0509,-165.5001"/>
</g>
<!-- AplicarComponent -->
<g id="node3" class="node">
<title>AplicarComponent</title>
<polygon fill="#ffffb3" stroke="#000000" points="897.8104,-122 774.1896,-122 774.1896,-86 897.8104,-86 897.8104,-122"/>
<text text-anchor="middle" x="836" y="-99.8" font-family="Times,serif" font-size="14.00" fill="#000000">AplicarComponent</text>
</g>
<!-- AplicarComponent&#45;&gt;Aplica_Mov_edosctaModule -->
<g id="edge3" class="edge">
<title>AplicarComponent&#45;&gt;Aplica_Mov_edosctaModule</title>
<path fill="none" stroke="#000000" d="M836,-122.027C836,-138.3976 836,-160 836,-160 836,-160 754.7046,-160 754.7046,-160"/>
<polygon fill="#000000" stroke="#000000" points="754.7046,-156.5001 744.7046,-160 754.7046,-163.5001 754.7046,-156.5001"/>
</g>
<!-- AplicaBonificService -->
<g id="node5" class="node">
<title>AplicaBonificService</title>
<ellipse fill="#fdb462" stroke="#000000" cx="655" cy="-104" rx="94.8974" ry="18"/>
<text text-anchor="middle" x="655" y="-99.8" font-family="Times,serif" font-size="14.00" fill="#000000">AplicaBonificService</text>
</g>
<!-- AplicaBonificService&#45;&gt;Aplica_Mov_edosctaModule -->
<g id="edge4" class="edge">
<title>AplicaBonificService&#45;&gt;Aplica_Mov_edosctaModule</title>
<path fill="none" stroke="#000000" d="M655,-122.1061C655,-122.1061 655,-140.991 655,-140.991"/>
<polygon fill="#000000" stroke="#000000" points="651.5001,-140.9909 655,-150.991 658.5001,-140.991 651.5001,-140.9909"/>
</g>
<!-- Aplica_Mov_edoctaService -->
<g id="node6" class="node">
<title>Aplica_Mov_edoctaService</title>
<ellipse fill="#fdb462" stroke="#000000" cx="423" cy="-104" rx="118.6626" ry="18"/>
<text text-anchor="middle" x="423" y="-99.8" font-family="Times,serif" font-size="14.00" fill="#000000">Aplica_Mov_edoctaService</text>
</g>
<!-- Aplica_Mov_edoctaService&#45;&gt;Aplica_Mov_edosctaModule -->
<g id="edge5" class="edge">
<title>Aplica_Mov_edoctaService&#45;&gt;Aplica_Mov_edosctaModule</title>
<path fill="none" stroke="#000000" d="M423,-122.027C423,-138.3976 423,-160 423,-160 423,-160 555.3027,-160 555.3027,-160"/>
<polygon fill="#000000" stroke="#000000" points="555.3028,-163.5001 565.3027,-160 555.3027,-156.5001 555.3028,-163.5001"/>
</g>
<!-- AplicarService -->
<g id="node7" class="node">
<title>AplicarService</title>
<ellipse fill="#fdb462" stroke="#000000" cx="217" cy="-104" rx="68.8946" ry="18"/>
<text text-anchor="middle" x="217" y="-99.8" font-family="Times,serif" font-size="14.00" fill="#000000">AplicarService</text>
</g>
<!-- AplicarService&#45;&gt;Aplica_Mov_edosctaModule -->
<g id="edge6" class="edge">
<title>AplicarService&#45;&gt;Aplica_Mov_edosctaModule</title>
<path fill="none" stroke="#000000" d="M217,-122.1061C217,-141.3391 217,-169 217,-169 217,-169 555.3072,-169 555.3072,-169"/>
<polygon fill="#000000" stroke="#000000" points="555.3073,-172.5001 565.3072,-169 555.3072,-165.5001 555.3073,-172.5001"/>
</g>
<!-- ServiceUrl -->
<g id="node8" class="node">
<title>ServiceUrl</title>
<ellipse fill="#fdb462" stroke="#000000" cx="77" cy="-104" rx="52.7238" ry="18"/>
<text text-anchor="middle" x="77" y="-99.8" font-family="Times,serif" font-size="14.00" fill="#000000">ServiceUrl</text>
</g>
<!-- ServiceUrl&#45;&gt;Aplica_Mov_edosctaModule -->
<g id="edge7" class="edge">
<title>ServiceUrl&#45;&gt;Aplica_Mov_edosctaModule</title>
<path fill="none" stroke="#000000" d="M77,-122.2921C77,-144.2057 77,-178 77,-178 77,-178 555.3217,-178 555.3217,-178"/>
<polygon fill="#000000" stroke="#000000" points="555.3217,-181.5001 565.3217,-178 555.3216,-174.5001 555.3217,-181.5001"/>
</g>
</g>
</svg>
