<?xml version="1.0" encoding="UTF-8" standalone="no"?>
<!DOCTYPE svg PUBLIC "-//W3C//DTD SVG 1.1//EN"
 "http://www.w3.org/Graphics/SVG/1.1/DTD/svg11.dtd">
<!-- Generated by graphviz version 2.40.1 (20161225.0304)
 -->
<!-- Title: dependencies Pages: 1 -->
<svg width="971pt" height="211pt"
 viewBox="0.00 0.00 971.00 211.00" xmlns="http://www.w3.org/2000/svg" xmlns:xlink="http://www.w3.org/1999/xlink">
<g id="graph0" class="graph" transform="scale(1 1) rotate(0) translate(4 207)">
<title>dependencies</title>
<polygon fill="#ffffff" stroke="transparent" points="-4,4 -4,-207 967,-207 967,4 -4,4"/>
<text text-anchor="start" x="460.5091" y="-42.4" font-family="sans-serif" font-weight="bold" font-size="14.00" fill="#000000">Legend</text>
<polygon fill="#ffffb3" stroke="transparent" points="247.5,-10 247.5,-30 267.5,-30 267.5,-10 247.5,-10"/>
<text text-anchor="start" x="271.129" y="-15.4" font-family="sans-serif" font-size="14.00" fill="#000000"> &#160;Declarations</text>
<polygon fill="#8dd3c7" stroke="transparent" points="360.5,-10 360.5,-30 380.5,-30 380.5,-10 360.5,-10"/>
<text text-anchor="start" x="384.2251" y="-15.4" font-family="sans-serif" font-size="14.00" fill="#000000"> &#160;Module</text>
<polygon fill="#80b1d3" stroke="transparent" points="446.5,-10 446.5,-30 466.5,-30 466.5,-10 446.5,-10"/>
<text text-anchor="start" x="470.2812" y="-15.4" font-family="sans-serif" font-size="14.00" fill="#000000"> &#160;Bootstrap</text>
<polygon fill="#fdb462" stroke="transparent" points="543.5,-10 543.5,-30 563.5,-30 563.5,-10 543.5,-10"/>
<text text-anchor="start" x="567.1732" y="-15.4" font-family="sans-serif" font-size="14.00" fill="#000000"> &#160;Providers</text>
<polygon fill="#fb8072" stroke="transparent" points="639.5,-10 639.5,-30 659.5,-30 659.5,-10 639.5,-10"/>
<text text-anchor="start" x="663.2258" y="-15.4" font-family="sans-serif" font-size="14.00" fill="#000000"> &#160;Exports</text>
<g id="clust1" class="cluster">
<title>cluster_Mov_diversosModule</title>
<polygon fill="none" stroke="#000000" stroke-dasharray="1,5" points="8,-70 8,-195 955,-195 955,-70 8,-70"/>
</g>
<g id="clust2" class="cluster">
<title>cluster_Mov_diversosModule_declarations</title>
<polygon fill="none" stroke="#000000" points="747,-78 747,-130 947,-130 947,-78 747,-78"/>
</g>
<g id="clust4" class="cluster">
<title>cluster_Mov_diversosModule_imports</title>
<polygon fill="none" stroke="#000000" points="539,-78 539,-130 739,-130 739,-78 539,-78"/>
</g>
<g id="clust7" class="cluster">
<title>cluster_Mov_diversosModule_providers</title>
<polygon fill="none" stroke="#000000" points="16,-78 16,-130 531,-130 531,-78 16,-78"/>
</g>
<!-- Mov_diversosListComponent -->
<g id="node1" class="node">
<title>Mov_diversosListComponent</title>
<polygon fill="#ffffb3" stroke="#000000" points="938.7105,-122 755.2895,-122 755.2895,-86 938.7105,-86 938.7105,-122"/>
<text text-anchor="middle" x="847" y="-99.8" font-family="Times,serif" font-size="14.00" fill="#000000">Mov_diversosListComponent</text>
</g>
<!-- Mov_diversosModule -->
<g id="node2" class="node">
<title>Mov_diversosModule</title>
<polygon fill="#8dd3c7" stroke="#000000" points="509.6498,-187 506.6498,-191 485.6498,-191 482.6498,-187 370.3502,-187 370.3502,-151 509.6498,-151 509.6498,-187"/>
<text text-anchor="middle" x="440" y="-164.8" font-family="Times,serif" font-size="14.00" fill="#000000">Mov_diversosModule</text>
</g>
<!-- Mov_diversosListComponent&#45;&gt;Mov_diversosModule -->
<g id="edge1" class="edge">
<title>Mov_diversosListComponent&#45;&gt;Mov_diversosModule</title>
<path fill="none" stroke="#000000" d="M847,-122.2843C847,-143.3211 847,-175 847,-175 847,-175 519.9658,-175 519.9658,-175"/>
<polygon fill="#000000" stroke="#000000" points="519.9658,-171.5001 509.9658,-175 519.9658,-178.5001 519.9658,-171.5001"/>
</g>
<!-- Mov_diversosRoutingModule -->
<g id="node3" class="node">
<title>Mov_diversosRoutingModule</title>
<polygon fill="#8dd3c7" stroke="#000000" points="731.2673,-122 728.2673,-126 707.2673,-126 704.2673,-122 546.7327,-122 546.7327,-86 731.2673,-86 731.2673,-122"/>
<text text-anchor="middle" x="639" y="-99.8" font-family="Times,serif" font-size="14.00" fill="#000000">Mov_diversosRoutingModule</text>
</g>
<!-- Mov_diversosRoutingModule&#45;&gt;Mov_diversosModule -->
<g id="edge2" class="edge">
<title>Mov_diversosRoutingModule&#45;&gt;Mov_diversosModule</title>
<path fill="none" stroke="#000000" d="M639,-122.0225C639,-139.3734 639,-163 639,-163 639,-163 519.8801,-163 519.8801,-163"/>
<polygon fill="#000000" stroke="#000000" points="519.8802,-159.5001 509.8801,-163 519.8801,-166.5001 519.8802,-159.5001"/>
</g>
<!-- BonificDivService -->
<g id="node4" class="node">
<title>BonificDivService</title>
<ellipse fill="#fdb462" stroke="#000000" cx="440" cy="-104" rx="83.3828" ry="18"/>
<text text-anchor="middle" x="440" y="-99.8" font-family="Times,serif" font-size="14.00" fill="#000000">BonificDivService</text>
</g>
<!-- BonificDivService&#45;&gt;Mov_diversosModule -->
<g id="edge3" class="edge">
<title>BonificDivService&#45;&gt;Mov_diversosModule</title>
<path fill="none" stroke="#000000" d="M440,-122.1061C440,-122.1061 440,-140.991 440,-140.991"/>
<polygon fill="#000000" stroke="#000000" points="436.5001,-140.9909 440,-150.991 443.5001,-140.991 436.5001,-140.9909"/>
</g>
<!-- Mov_diversosService -->
<g id="node5" class="node">
<title>Mov_diversosService</title>
<ellipse fill="#fdb462" stroke="#000000" cx="243" cy="-104" rx="95.4869" ry="18"/>
<text text-anchor="middle" x="243" y="-99.8" font-family="Times,serif" font-size="14.00" fill="#000000">Mov_diversosService</text>
</g>
<!-- Mov_diversosService&#45;&gt;Mov_diversosModule -->
<g id="edge4" class="edge">
<title>Mov_diversosService&#45;&gt;Mov_diversosModule</title>
<path fill="none" stroke="#000000" d="M243,-122.0225C243,-139.3734 243,-163 243,-163 243,-163 360.2679,-163 360.2679,-163"/>
<polygon fill="#000000" stroke="#000000" points="360.268,-166.5001 370.2679,-163 360.2679,-159.5001 360.268,-166.5001"/>
</g>
<!-- ServiceUrl -->
<g id="node6" class="node">
<title>ServiceUrl</title>
<ellipse fill="#fdb462" stroke="#000000" cx="77" cy="-104" rx="52.7238" ry="18"/>
<text text-anchor="middle" x="77" y="-99.8" font-family="Times,serif" font-size="14.00" fill="#000000">ServiceUrl</text>
</g>
<!-- ServiceUrl&#45;&gt;Mov_diversosModule -->
<g id="edge5" class="edge">
<title>ServiceUrl&#45;&gt;Mov_diversosModule</title>
<path fill="none" stroke="#000000" d="M77,-122.2843C77,-143.3211 77,-175 77,-175 77,-175 360.0099,-175 360.0099,-175"/>
<polygon fill="#000000" stroke="#000000" points="360.01,-178.5001 370.0099,-175 360.0099,-171.5001 360.01,-178.5001"/>
</g>
</g>
</svg>
