<?xml version="1.0" encoding="UTF-8" standalone="no"?>
<!DOCTYPE svg PUBLIC "-//W3C//DTD SVG 1.1//EN"
 "http://www.w3.org/Graphics/SVG/1.1/DTD/svg11.dtd">
<!-- Generated by graphviz version 2.40.1 (20161225.0304)
 -->
<!-- Title: dependencies Pages: 1 -->
<svg width="700pt" height="211pt"
 viewBox="0.00 0.00 700.00 211.00" xmlns="http://www.w3.org/2000/svg" xmlns:xlink="http://www.w3.org/1999/xlink">
<g id="graph0" class="graph" transform="scale(1 1) rotate(0) translate(4 207)">
<title>dependencies</title>
<polygon fill="#ffffff" stroke="transparent" points="-4,4 -4,-207 696,-207 696,4 -4,4"/>
<text text-anchor="start" x="325.0091" y="-42.4" font-family="sans-serif" font-weight="bold" font-size="14.00" fill="#000000">Legend</text>
<polygon fill="#ffffb3" stroke="transparent" points="112,-10 112,-30 132,-30 132,-10 112,-10"/>
<text text-anchor="start" x="135.629" y="-15.4" font-family="sans-serif" font-size="14.00" fill="#000000"> &#160;Declarations</text>
<polygon fill="#8dd3c7" stroke="transparent" points="225,-10 225,-30 245,-30 245,-10 225,-10"/>
<text text-anchor="start" x="248.7251" y="-15.4" font-family="sans-serif" font-size="14.00" fill="#000000"> &#160;Module</text>
<polygon fill="#80b1d3" stroke="transparent" points="311,-10 311,-30 331,-30 331,-10 311,-10"/>
<text text-anchor="start" x="334.7812" y="-15.4" font-family="sans-serif" font-size="14.00" fill="#000000"> &#160;Bootstrap</text>
<polygon fill="#fdb462" stroke="transparent" points="408,-10 408,-30 428,-30 428,-10 408,-10"/>
<text text-anchor="start" x="431.6732" y="-15.4" font-family="sans-serif" font-size="14.00" fill="#000000"> &#160;Providers</text>
<polygon fill="#fb8072" stroke="transparent" points="504,-10 504,-30 524,-30 524,-10 504,-10"/>
<text text-anchor="start" x="527.7258" y="-15.4" font-family="sans-serif" font-size="14.00" fill="#000000"> &#160;Exports</text>
<g id="clust1" class="cluster">
<title>cluster_CambiaPasswordModule</title>
<polygon fill="none" stroke="#000000" stroke-dasharray="1,5" points="8,-70 8,-195 684,-195 684,-70 8,-70"/>
</g>
<g id="clust2" class="cluster">
<title>cluster_CambiaPasswordModule_declarations</title>
<polygon fill="none" stroke="#000000" points="482,-78 482,-130 676,-130 676,-78 482,-78"/>
</g>
<g id="clust4" class="cluster">
<title>cluster_CambiaPasswordModule_imports</title>
<polygon fill="none" stroke="#000000" points="256,-78 256,-130 474,-130 474,-78 256,-78"/>
</g>
<g id="clust7" class="cluster">
<title>cluster_CambiaPasswordModule_providers</title>
<polygon fill="none" stroke="#000000" points="16,-78 16,-130 248,-130 248,-78 16,-78"/>
</g>
<!-- CambiaPasswordComponent -->
<g id="node1" class="node">
<title>CambiaPasswordComponent</title>
<polygon fill="#ffffb3" stroke="#000000" points="668.0336,-122 489.9664,-122 489.9664,-86 668.0336,-86 668.0336,-122"/>
<text text-anchor="middle" x="579" y="-99.8" font-family="Times,serif" font-size="14.00" fill="#000000">CambiaPasswordComponent</text>
</g>
<!-- CambiaPasswordModule -->
<g id="node2" class="node">
<title>CambiaPasswordModule</title>
<polygon fill="#8dd3c7" stroke="#000000" points="443.2506,-187 440.2506,-191 419.2506,-191 416.2506,-187 286.7494,-187 286.7494,-151 443.2506,-151 443.2506,-187"/>
<text text-anchor="middle" x="365" y="-164.8" font-family="Times,serif" font-size="14.00" fill="#000000">CambiaPasswordModule</text>
</g>
<!-- CambiaPasswordComponent&#45;&gt;CambiaPasswordModule -->
<g id="edge1" class="edge">
<title>CambiaPasswordComponent&#45;&gt;CambiaPasswordModule</title>
<path fill="none" stroke="#000000" d="M579,-122.1061C579,-141.3391 579,-169 579,-169 579,-169 453.4705,-169 453.4705,-169"/>
<polygon fill="#000000" stroke="#000000" points="453.4706,-165.5001 443.4705,-169 453.4705,-172.5001 453.4706,-165.5001"/>
</g>
<!-- CambiaPasswordRoutingModule -->
<g id="node3" class="node">
<title>CambiaPasswordRoutingModule</title>
<polygon fill="#8dd3c7" stroke="#000000" points="465.8682,-122 462.8682,-126 441.8682,-126 438.8682,-122 264.1318,-122 264.1318,-86 465.8682,-86 465.8682,-122"/>
<text text-anchor="middle" x="365" y="-99.8" font-family="Times,serif" font-size="14.00" fill="#000000">CambiaPasswordRoutingModule</text>
</g>
<!-- CambiaPasswordRoutingModule&#45;&gt;CambiaPasswordModule -->
<g id="edge2" class="edge">
<title>CambiaPasswordRoutingModule&#45;&gt;CambiaPasswordModule</title>
<path fill="none" stroke="#000000" d="M365,-122.1061C365,-122.1061 365,-140.991 365,-140.991"/>
<polygon fill="#000000" stroke="#000000" points="361.5001,-140.9909 365,-150.991 368.5001,-140.991 361.5001,-140.9909"/>
</g>
<!-- CambioPasswordService -->
<g id="node4" class="node">
<title>CambioPasswordService</title>
<ellipse fill="#fdb462" stroke="#000000" cx="132" cy="-104" rx="107.6618" ry="18"/>
<text text-anchor="middle" x="132" y="-99.8" font-family="Times,serif" font-size="14.00" fill="#000000">CambioPasswordService</text>
</g>
<!-- CambioPasswordService&#45;&gt;CambiaPasswordModule -->
<g id="edge3" class="edge">
<title>CambioPasswordService&#45;&gt;CambiaPasswordModule</title>
<path fill="none" stroke="#000000" d="M132,-122.1061C132,-141.3391 132,-169 132,-169 132,-169 276.4417,-169 276.4417,-169"/>
<polygon fill="#000000" stroke="#000000" points="276.4417,-172.5001 286.4417,-169 276.4416,-165.5001 276.4417,-172.5001"/>
</g>
</g>
</svg>
