<?xml version="1.0" encoding="UTF-8" standalone="no"?>
<!DOCTYPE svg PUBLIC "-//W3C//DTD SVG 1.1//EN"
 "http://www.w3.org/Graphics/SVG/1.1/DTD/svg11.dtd">
<!-- Generated by graphviz version 2.40.1 (20161225.0304)
 -->
<!-- Title: dependencies Pages: 1 -->
<svg width="1919pt" height="211pt"
 viewBox="0.00 0.00 1919.00 211.00" xmlns="http://www.w3.org/2000/svg" xmlns:xlink="http://www.w3.org/1999/xlink">
<g id="graph0" class="graph" transform="scale(1 1) rotate(0) translate(4 207)">
<title>dependencies</title>
<polygon fill="#ffffff" stroke="transparent" points="-4,4 -4,-207 1915,-207 1915,4 -4,4"/>
<text text-anchor="start" x="934.5091" y="-42.4" font-family="sans-serif" font-weight="bold" font-size="14.00" fill="#000000">Legend</text>
<polygon fill="#ffffb3" stroke="transparent" points="721.5,-10 721.5,-30 741.5,-30 741.5,-10 721.5,-10"/>
<text text-anchor="start" x="745.129" y="-15.4" font-family="sans-serif" font-size="14.00" fill="#000000"> &#160;Declarations</text>
<polygon fill="#8dd3c7" stroke="transparent" points="834.5,-10 834.5,-30 854.5,-30 854.5,-10 834.5,-10"/>
<text text-anchor="start" x="858.2251" y="-15.4" font-family="sans-serif" font-size="14.00" fill="#000000"> &#160;Module</text>
<polygon fill="#80b1d3" stroke="transparent" points="920.5,-10 920.5,-30 940.5,-30 940.5,-10 920.5,-10"/>
<text text-anchor="start" x="944.2812" y="-15.4" font-family="sans-serif" font-size="14.00" fill="#000000"> &#160;Bootstrap</text>
<polygon fill="#fdb462" stroke="transparent" points="1017.5,-10 1017.5,-30 1037.5,-30 1037.5,-10 1017.5,-10"/>
<text text-anchor="start" x="1041.1732" y="-15.4" font-family="sans-serif" font-size="14.00" fill="#000000"> &#160;Providers</text>
<polygon fill="#fb8072" stroke="transparent" points="1113.5,-10 1113.5,-30 1133.5,-30 1133.5,-10 1113.5,-10"/>
<text text-anchor="start" x="1137.2258" y="-15.4" font-family="sans-serif" font-size="14.00" fill="#000000"> &#160;Exports</text>
<g id="clust1" class="cluster">
<title>cluster_CatalogosModule</title>
<polygon fill="none" stroke="#000000" stroke-dasharray="1,5" points="8,-70 8,-195 1903,-195 1903,-70 8,-70"/>
</g>
<g id="clust2" class="cluster">
<title>cluster_CatalogosModule_declarations</title>
<polygon fill="none" stroke="#000000" points="505,-78 505,-130 1895,-130 1895,-78 505,-78"/>
</g>
<g id="clust11" class="cluster">
<title>cluster_CatalogosModule_imports</title>
<polygon fill="none" stroke="#000000" points="321,-78 321,-130 497,-130 497,-78 321,-78"/>
</g>
<g id="clust14" class="cluster">
<title>cluster_CatalogosModule_providers</title>
<polygon fill="none" stroke="#000000" points="16,-78 16,-130 313,-130 313,-78 16,-78"/>
</g>
<!-- BonificacionesListComponent -->
<g id="node1" class="node">
<title>BonificacionesListComponent</title>
<polygon fill="#ffffb3" stroke="#000000" points="1886.5828,-122 1699.4172,-122 1699.4172,-86 1886.5828,-86 1886.5828,-122"/>
<text text-anchor="middle" x="1793" y="-99.8" font-family="Times,serif" font-size="14.00" fill="#000000">BonificacionesListComponent</text>
</g>
<!-- CatalogosModule -->
<g id="node9" class="node">
<title>CatalogosModule</title>
<polygon fill="#8dd3c7" stroke="#000000" points="985.5423,-187 982.5423,-191 961.5423,-191 958.5423,-187 870.4577,-187 870.4577,-151 985.5423,-151 985.5423,-187"/>
<text text-anchor="middle" x="928" y="-164.8" font-family="Times,serif" font-size="14.00" fill="#000000">CatalogosModule</text>
</g>
<!-- BonificacionesListComponent&#45;&gt;CatalogosModule -->
<g id="edge1" class="edge">
<title>BonificacionesListComponent&#45;&gt;CatalogosModule</title>
<path fill="none" stroke="#000000" d="M1793,-122.0908C1793,-145.1328 1793,-182 1793,-182 1793,-182 995.7612,-182 995.7612,-182"/>
<polygon fill="#000000" stroke="#000000" points="995.7612,-178.5001 985.7612,-182 995.7611,-185.5001 995.7612,-178.5001"/>
</g>
<!-- CatalogosListComponent -->
<g id="node2" class="node">
<title>CatalogosListComponent</title>
<polygon fill="#ffffb3" stroke="#000000" points="1681.6024,-122 1522.3976,-122 1522.3976,-86 1681.6024,-86 1681.6024,-122"/>
<text text-anchor="middle" x="1602" y="-99.8" font-family="Times,serif" font-size="14.00" fill="#000000">CatalogosListComponent</text>
</g>
<!-- CatalogosListComponent&#45;&gt;CatalogosModule -->
<g id="edge2" class="edge">
<title>CatalogosListComponent&#45;&gt;CatalogosModule</title>
<path fill="none" stroke="#000000" d="M1602,-122.2843C1602,-143.3211 1602,-175 1602,-175 1602,-175 995.7562,-175 995.7562,-175"/>
<polygon fill="#000000" stroke="#000000" points="995.7563,-171.5001 985.7562,-175 995.7562,-178.5001 995.7563,-171.5001"/>
</g>
<!-- ClavedivListComponent -->
<g id="node3" class="node">
<title>ClavedivListComponent</title>
<polygon fill="#ffffb3" stroke="#000000" points="1504.6582,-122 1351.3418,-122 1351.3418,-86 1504.6582,-86 1504.6582,-122"/>
<text text-anchor="middle" x="1428" y="-99.8" font-family="Times,serif" font-size="14.00" fill="#000000">ClavedivListComponent</text>
</g>
<!-- ClavedivListComponent&#45;&gt;CatalogosModule -->
<g id="edge3" class="edge">
<title>ClavedivListComponent&#45;&gt;CatalogosModule</title>
<path fill="none" stroke="#000000" d="M1428,-122.1061C1428,-141.3391 1428,-169 1428,-169 1428,-169 995.8448,-169 995.8448,-169"/>
<polygon fill="#000000" stroke="#000000" points="995.8448,-165.5001 985.8448,-169 995.8448,-172.5001 995.8448,-165.5001"/>
</g>
<!-- ClavemovListComponent -->
<g id="node4" class="node">
<title>ClavemovListComponent</title>
<polygon fill="#ffffb3" stroke="#000000" points="1333.1582,-122 1172.8418,-122 1172.8418,-86 1333.1582,-86 1333.1582,-122"/>
<text text-anchor="middle" x="1253" y="-99.8" font-family="Times,serif" font-size="14.00" fill="#000000">ClavemovListComponent</text>
</g>
<!-- ClavemovListComponent&#45;&gt;CatalogosModule -->
<g id="edge4" class="edge">
<title>ClavemovListComponent&#45;&gt;CatalogosModule</title>
<path fill="none" stroke="#000000" d="M1253,-122.0225C1253,-139.3734 1253,-163 1253,-163 1253,-163 995.729,-163 995.729,-163"/>
<polygon fill="#000000" stroke="#000000" points="995.729,-159.5001 985.729,-163 995.729,-166.5001 995.729,-159.5001"/>
</g>
<!-- CppListComponent -->
<g id="node5" class="node">
<title>CppListComponent</title>
<polygon fill="#ffffb3" stroke="#000000" points="1154.4482,-122 1027.5518,-122 1027.5518,-86 1154.4482,-86 1154.4482,-122"/>
<text text-anchor="middle" x="1091" y="-99.8" font-family="Times,serif" font-size="14.00" fill="#000000">CppListComponent</text>
</g>
<!-- CppListComponent&#45;&gt;CatalogosModule -->
<g id="edge5" class="edge">
<title>CppListComponent&#45;&gt;CatalogosModule</title>
<path fill="none" stroke="#000000" d="M1091,-122.2396C1091,-137.5706 1091,-157 1091,-157 1091,-157 995.9267,-157 995.9267,-157"/>
<polygon fill="#000000" stroke="#000000" points="995.9267,-153.5001 985.9267,-157 995.9266,-160.5001 995.9267,-153.5001"/>
</g>
<!-- ProgramasListComponent -->
<g id="node6" class="node">
<title>ProgramasListComponent</title>
<polygon fill="#ffffb3" stroke="#000000" points="1009.479,-122 846.521,-122 846.521,-86 1009.479,-86 1009.479,-122"/>
<text text-anchor="middle" x="928" y="-99.8" font-family="Times,serif" font-size="14.00" fill="#000000">ProgramasListComponent</text>
</g>
<!-- ProgramasListComponent&#45;&gt;CatalogosModule -->
<g id="edge6" class="edge">
<title>ProgramasListComponent&#45;&gt;CatalogosModule</title>
<path fill="none" stroke="#000000" d="M928,-122.1061C928,-122.1061 928,-140.991 928,-140.991"/>
<polygon fill="#000000" stroke="#000000" points="924.5001,-140.9909 928,-150.991 931.5001,-140.991 924.5001,-140.9909"/>
</g>
<!-- SalminListComponent -->
<g id="node7" class="node">
<title>SalminListComponent</title>
<polygon fill="#ffffb3" stroke="#000000" points="828.28,-122 685.72,-122 685.72,-86 828.28,-86 828.28,-122"/>
<text text-anchor="middle" x="757" y="-99.8" font-family="Times,serif" font-size="14.00" fill="#000000">SalminListComponent</text>
</g>
<!-- SalminListComponent&#45;&gt;CatalogosModule -->
<g id="edge7" class="edge">
<title>SalminListComponent&#45;&gt;CatalogosModule</title>
<path fill="none" stroke="#000000" d="M757,-122.2396C757,-137.5706 757,-157 757,-157 757,-157 860.1072,-157 860.1072,-157"/>
<polygon fill="#000000" stroke="#000000" points="860.1072,-160.5001 870.1072,-157 860.1072,-153.5001 860.1072,-160.5001"/>
</g>
<!-- SalmindfListComponent -->
<g id="node8" class="node">
<title>SalmindfListComponent</title>
<polygon fill="#ffffb3" stroke="#000000" points="667.441,-122 512.559,-122 512.559,-86 667.441,-86 667.441,-122"/>
<text text-anchor="middle" x="590" y="-99.8" font-family="Times,serif" font-size="14.00" fill="#000000">SalmindfListComponent</text>
</g>
<!-- SalmindfListComponent&#45;&gt;CatalogosModule -->
<g id="edge8" class="edge">
<title>SalmindfListComponent&#45;&gt;CatalogosModule</title>
<path fill="none" stroke="#000000" d="M590,-122.0225C590,-139.3734 590,-163 590,-163 590,-163 860.2798,-163 860.2798,-163"/>
<polygon fill="#000000" stroke="#000000" points="860.2798,-166.5001 870.2798,-163 860.2797,-159.5001 860.2798,-166.5001"/>
</g>
<!-- CatalogosRoutingModule -->
<g id="node10" class="node">
<title>CatalogosRoutingModule</title>
<polygon fill="#8dd3c7" stroke="#000000" points="489.1596,-122 486.1596,-126 465.1596,-126 462.1596,-122 328.8404,-122 328.8404,-86 489.1596,-86 489.1596,-122"/>
<text text-anchor="middle" x="409" y="-99.8" font-family="Times,serif" font-size="14.00" fill="#000000">CatalogosRoutingModule</text>
</g>
<!-- CatalogosRoutingModule&#45;&gt;CatalogosModule -->
<g id="edge9" class="edge">
<title>CatalogosRoutingModule&#45;&gt;CatalogosModule</title>
<path fill="none" stroke="#000000" d="M409,-122.1061C409,-141.3391 409,-169 409,-169 409,-169 860.2251,-169 860.2251,-169"/>
<polygon fill="#000000" stroke="#000000" points="860.2251,-172.5001 870.2251,-169 860.2251,-165.5001 860.2251,-172.5001"/>
</g>
<!-- CatalogosService -->
<g id="node11" class="node">
<title>CatalogosService</title>
<ellipse fill="#fdb462" stroke="#000000" cx="226" cy="-104" rx="78.7279" ry="18"/>
<text text-anchor="middle" x="226" y="-99.8" font-family="Times,serif" font-size="14.00" fill="#000000">CatalogosService</text>
</g>
<!-- CatalogosService&#45;&gt;CatalogosModule -->
<g id="edge10" class="edge">
<title>CatalogosService&#45;&gt;CatalogosModule</title>
<path fill="none" stroke="#000000" d="M226,-122.2843C226,-143.3211 226,-175 226,-175 226,-175 860.2541,-175 860.2541,-175"/>
<polygon fill="#000000" stroke="#000000" points="860.2541,-178.5001 870.2541,-175 860.2541,-171.5001 860.2541,-178.5001"/>
</g>
<!-- ServiceUrl -->
<g id="node12" class="node">
<title>ServiceUrl</title>
<ellipse fill="#fdb462" stroke="#000000" cx="77" cy="-104" rx="52.7238" ry="18"/>
<text text-anchor="middle" x="77" y="-99.8" font-family="Times,serif" font-size="14.00" fill="#000000">ServiceUrl</text>
</g>
<!-- ServiceUrl&#45;&gt;CatalogosModule -->
<g id="edge11" class="edge">
<title>ServiceUrl&#45;&gt;CatalogosModule</title>
<path fill="none" stroke="#000000" d="M77,-122.0908C77,-145.1328 77,-182 77,-182 77,-182 860.1764,-182 860.1764,-182"/>
<polygon fill="#000000" stroke="#000000" points="860.1764,-185.5001 870.1764,-182 860.1763,-178.5001 860.1764,-185.5001"/>
</g>
</g>
</svg>
