<?xml version="1.0" encoding="UTF-8" standalone="no"?>
<!DOCTYPE svg PUBLIC "-//W3C//DTD SVG 1.1//EN"
 "http://www.w3.org/Graphics/SVG/1.1/DTD/svg11.dtd">
<!-- Generated by graphviz version 2.40.1 (20161225.0304)
 -->
<!-- Title: dependencies Pages: 1 -->
<svg width="504pt" height="211pt"
 viewBox="0.00 0.00 504.00 211.00" xmlns="http://www.w3.org/2000/svg" xmlns:xlink="http://www.w3.org/1999/xlink">
<g id="graph0" class="graph" transform="scale(1 1) rotate(0) translate(4 207)">
<title>dependencies</title>
<polygon fill="#ffffff" stroke="transparent" points="-4,4 -4,-207 500,-207 500,4 -4,4"/>
<text text-anchor="start" x="227.0091" y="-42.4" font-family="sans-serif" font-weight="bold" font-size="14.00" fill="#000000">Legend</text>
<polygon fill="#ffffb3" stroke="transparent" points="14,-10 14,-30 34,-30 34,-10 14,-10"/>
<text text-anchor="start" x="37.629" y="-15.4" font-family="sans-serif" font-size="14.00" fill="#000000"> &#160;Declarations</text>
<polygon fill="#8dd3c7" stroke="transparent" points="127,-10 127,-30 147,-30 147,-10 127,-10"/>
<text text-anchor="start" x="150.7251" y="-15.4" font-family="sans-serif" font-size="14.00" fill="#000000"> &#160;Module</text>
<polygon fill="#80b1d3" stroke="transparent" points="213,-10 213,-30 233,-30 233,-10 213,-10"/>
<text text-anchor="start" x="236.7812" y="-15.4" font-family="sans-serif" font-size="14.00" fill="#000000"> &#160;Bootstrap</text>
<polygon fill="#fdb462" stroke="transparent" points="310,-10 310,-30 330,-30 330,-10 310,-10"/>
<text text-anchor="start" x="333.6732" y="-15.4" font-family="sans-serif" font-size="14.00" fill="#000000"> &#160;Providers</text>
<polygon fill="#fb8072" stroke="transparent" points="406,-10 406,-30 426,-30 426,-10 406,-10"/>
<text text-anchor="start" x="429.7258" y="-15.4" font-family="sans-serif" font-size="14.00" fill="#000000"> &#160;Exports</text>
<g id="clust1" class="cluster">
<title>cluster_Mov_edosctaModule</title>
<polygon fill="none" stroke="#000000" stroke-dasharray="1,5" points="77,-70 77,-195 419,-195 419,-70 77,-70"/>
</g>
<g id="clust3" class="cluster">
<title>cluster_Mov_edosctaModule_imports</title>
<polygon fill="none" stroke="#000000" points="215,-78 215,-130 411,-130 411,-78 215,-78"/>
</g>
<g id="clust6" class="cluster">
<title>cluster_Mov_edosctaModule_providers</title>
<polygon fill="none" stroke="#000000" points="85,-78 85,-130 207,-130 207,-78 85,-78"/>
</g>
<!-- Mov_edosctaRoutingModule -->
<g id="node1" class="node">
<title>Mov_edosctaRoutingModule</title>
<polygon fill="#8dd3c7" stroke="#000000" points="403.0912,-122 400.0912,-126 379.0912,-126 376.0912,-122 222.9088,-122 222.9088,-86 403.0912,-86 403.0912,-122"/>
<text text-anchor="middle" x="313" y="-99.8" font-family="Times,serif" font-size="14.00" fill="#000000">Mov_edosctaRoutingModule</text>
</g>
<!-- Mov_edosctaModule -->
<g id="node2" class="node">
<title>Mov_edosctaModule</title>
<polygon fill="#8dd3c7" stroke="#000000" points="299.4734,-187 296.4734,-191 275.4734,-191 272.4734,-187 164.5266,-187 164.5266,-151 299.4734,-151 299.4734,-187"/>
<text text-anchor="middle" x="232" y="-164.8" font-family="Times,serif" font-size="14.00" fill="#000000">Mov_edosctaModule</text>
</g>
<!-- Mov_edosctaRoutingModule&#45;&gt;Mov_edosctaModule -->
<g id="edge1" class="edge">
<title>Mov_edosctaRoutingModule&#45;&gt;Mov_edosctaModule</title>
<path fill="none" stroke="#000000" d="M261.2206,-122.1061C261.2206,-122.1061 261.2206,-140.991 261.2206,-140.991"/>
<polygon fill="#000000" stroke="#000000" points="257.7206,-140.9909 261.2206,-150.991 264.7206,-140.991 257.7206,-140.9909"/>
</g>
<!-- ServiceUrl -->
<g id="node3" class="node">
<title>ServiceUrl</title>
<ellipse fill="#fdb462" stroke="#000000" cx="146" cy="-104" rx="52.7238" ry="18"/>
<text text-anchor="middle" x="146" y="-99.8" font-family="Times,serif" font-size="14.00" fill="#000000">ServiceUrl</text>
</g>
<!-- ServiceUrl&#45;&gt;Mov_edosctaModule -->
<g id="edge2" class="edge">
<title>ServiceUrl&#45;&gt;Mov_edosctaModule</title>
<path fill="none" stroke="#000000" d="M181.6875,-117.468C181.6875,-117.468 181.6875,-140.8642 181.6875,-140.8642"/>
<polygon fill="#000000" stroke="#000000" points="178.1876,-140.8641 181.6875,-150.8642 185.1876,-140.8642 178.1876,-140.8641"/>
</g>
</g>
</svg>
