<?xml version="1.0" encoding="UTF-8" standalone="no"?>
<!DOCTYPE svg PUBLIC "-//W3C//DTD SVG 1.1//EN"
 "http://www.w3.org/Graphics/SVG/1.1/DTD/svg11.dtd">
<!-- Generated by graphviz version 2.40.1 (20161225.0304)
 -->
<!-- Title: dependencies Pages: 1 -->
<svg width="2478pt" height="284pt"
 viewBox="0.00 0.00 2478.00 284.00" xmlns="http://www.w3.org/2000/svg" xmlns:xlink="http://www.w3.org/1999/xlink">
<g id="graph0" class="graph" transform="scale(1 1) rotate(0) translate(4 280)">
<title>dependencies</title>
<polygon fill="#ffffff" stroke="transparent" points="-4,4 -4,-280 2474,-280 2474,4 -4,4"/>
<text text-anchor="start" x="1214.0091" y="-42.4" font-family="sans-serif" font-weight="bold" font-size="14.00" fill="#000000">Legend</text>
<polygon fill="#ffffb3" stroke="transparent" points="1001,-10 1001,-30 1021,-30 1021,-10 1001,-10"/>
<text text-anchor="start" x="1024.629" y="-15.4" font-family="sans-serif" font-size="14.00" fill="#000000"> &#160;Declarations</text>
<polygon fill="#8dd3c7" stroke="transparent" points="1114,-10 1114,-30 1134,-30 1134,-10 1114,-10"/>
<text text-anchor="start" x="1137.7251" y="-15.4" font-family="sans-serif" font-size="14.00" fill="#000000"> &#160;Module</text>
<polygon fill="#80b1d3" stroke="transparent" points="1200,-10 1200,-30 1220,-30 1220,-10 1200,-10"/>
<text text-anchor="start" x="1223.7812" y="-15.4" font-family="sans-serif" font-size="14.00" fill="#000000"> &#160;Bootstrap</text>
<polygon fill="#fdb462" stroke="transparent" points="1297,-10 1297,-30 1317,-30 1317,-10 1297,-10"/>
<text text-anchor="start" x="1320.6732" y="-15.4" font-family="sans-serif" font-size="14.00" fill="#000000"> &#160;Providers</text>
<polygon fill="#fb8072" stroke="transparent" points="1393,-10 1393,-30 1413,-30 1413,-10 1393,-10"/>
<text text-anchor="start" x="1416.7258" y="-15.4" font-family="sans-serif" font-size="14.00" fill="#000000"> &#160;Exports</text>
<g id="clust1" class="cluster">
<title>cluster_ImportComponent</title>
<polygon fill="none" stroke="#000000" stroke-dasharray="1,5" points="8,-70 8,-268 2462,-268 2462,-70 8,-70"/>
</g>
<g id="clust2" class="cluster">
<title>cluster_ImportComponent_declarations</title>
<polygon fill="none" stroke="#000000" points="1283,-78 1283,-130 2454,-130 2454,-78 1283,-78"/>
</g>
<g id="clust11" class="cluster">
<title>cluster_ImportComponent_exports</title>
<polygon fill="none" stroke="#000000" points="724,-208 724,-260 1919,-260 1919,-208 724,-208"/>
</g>
<g id="clust13" class="cluster">
<title>cluster_ImportComponent_providers</title>
<polygon fill="none" stroke="#000000" points="16,-78 16,-130 1275,-130 1275,-78 16,-78"/>
</g>
<!-- AplicaBonificacionDivComponent -->
<g id="node1" class="node">
<title>AplicaBonificacionDivComponent</title>
<polygon fill="#ffffb3" stroke="#000000" points="2445.9594,-122 2234.0406,-122 2234.0406,-86 2445.9594,-86 2445.9594,-122"/>
<text text-anchor="middle" x="2340" y="-99.8" font-family="Times,serif" font-size="14.00" fill="#000000">AplicaBonificacionDivComponent</text>
</g>
<!-- ImportComponent -->
<g id="node8" class="node">
<title>ImportComponent</title>
<polygon fill="#8dd3c7" stroke="#000000" points="1299.9356,-187 1296.9356,-191 1275.9356,-191 1272.9356,-187 1180.0644,-187 1180.0644,-151 1299.9356,-151 1299.9356,-187"/>
<text text-anchor="middle" x="1240" y="-164.8" font-family="Times,serif" font-size="14.00" fill="#000000">ImportComponent</text>
</g>
<!-- AplicaBonificacionDivComponent&#45;&gt;ImportComponent -->
<g id="edge1" class="edge">
<title>AplicaBonificacionDivComponent&#45;&gt;ImportComponent</title>
<path fill="none" stroke="#000000" d="M2340,-122.1289C2340,-142.5724 2340,-173 2340,-173 2340,-173 1309.922,-173 1309.922,-173"/>
<polygon fill="#000000" stroke="#000000" points="1309.922,-169.5001 1299.922,-173 1309.9219,-176.5001 1309.922,-169.5001"/>
</g>
<!-- BonificacionComponent -->
<g id="node2" class="node">
<title>BonificacionComponent</title>
<polygon fill="#ffffb3" stroke="#000000" points="2215.6456,-122 2062.3544,-122 2062.3544,-86 2215.6456,-86 2215.6456,-122"/>
<text text-anchor="middle" x="2139" y="-99.8" font-family="Times,serif" font-size="14.00" fill="#000000">BonificacionComponent</text>
</g>
<!-- BonificacionComponent&#45;&gt;ImportComponent -->
<g id="edge2" class="edge">
<title>BonificacionComponent&#45;&gt;ImportComponent</title>
<path fill="none" stroke="#000000" d="M2139,-122.1061C2139,-141.3391 2139,-169 2139,-169 2139,-169 1310.0316,-169 1310.0316,-169"/>
<polygon fill="#000000" stroke="#000000" points="1310.0316,-165.5001 1300.0316,-169 1310.0315,-172.5001 1310.0316,-165.5001"/>
</g>
<!-- BonificacionDivComponent -->
<g id="node3" class="node">
<title>BonificacionDivComponent</title>
<polygon fill="#ffffb3" stroke="#000000" points="2044.1428,-122 1869.8572,-122 1869.8572,-86 2044.1428,-86 2044.1428,-122"/>
<text text-anchor="middle" x="1957" y="-99.8" font-family="Times,serif" font-size="14.00" fill="#000000">BonificacionDivComponent</text>
</g>
<!-- BonificacionDivComponent&#45;&gt;ImportComponent -->
<g id="edge3" class="edge">
<title>BonificacionDivComponent&#45;&gt;ImportComponent</title>
<path fill="none" stroke="#000000" d="M1890.2043,-122.2667C1890.2043,-140.5552 1890.2043,-166 1890.2043,-166 1890.2043,-166 1310.0042,-166 1310.0042,-166"/>
<polygon fill="#000000" stroke="#000000" points="1310.0042,-162.5001 1300.0042,-166 1310.0042,-169.5001 1310.0042,-162.5001"/>
</g>
<!-- ConfirmComponent -->
<g id="node4" class="node">
<title>ConfirmComponent</title>
<polygon fill="#ffffb3" stroke="#000000" points="1851.2716,-122 1722.7284,-122 1722.7284,-86 1851.2716,-86 1851.2716,-122"/>
<text text-anchor="middle" x="1787" y="-99.8" font-family="Times,serif" font-size="14.00" fill="#000000">ConfirmComponent</text>
</g>
<!-- ConfirmComponent&#45;&gt;ImportComponent -->
<g id="edge4" class="edge">
<title>ConfirmComponent&#45;&gt;ImportComponent</title>
<path fill="none" stroke="#000000" d="M1787,-122.0336C1787,-139.0597 1787,-162 1787,-162 1787,-162 1309.8414,-162 1309.8414,-162"/>
<polygon fill="#000000" stroke="#000000" points="1309.8414,-158.5001 1299.8414,-162 1309.8413,-165.5001 1309.8414,-158.5001"/>
</g>
<!-- Mov_edosctaListComponent -->
<g id="node5" class="node">
<title>Mov_edosctaListComponent</title>
<polygon fill="#ffffb3" stroke="#000000" points="1704.035,-122 1525.965,-122 1525.965,-86 1704.035,-86 1704.035,-122"/>
<text text-anchor="middle" x="1615" y="-99.8" font-family="Times,serif" font-size="14.00" fill="#000000">Mov_edosctaListComponent</text>
</g>
<!-- Mov_edosctaListComponent&#45;&gt;ImportComponent -->
<g id="edge5" class="edge">
<title>Mov_edosctaListComponent&#45;&gt;ImportComponent</title>
<path fill="none" stroke="#000000" d="M1576.3461,-122.0091C1576.3461,-138.0494 1576.3461,-159 1576.3461,-159 1576.3461,-159 1309.7444,-159 1309.7444,-159"/>
<polygon fill="#000000" stroke="#000000" points="1309.7444,-155.5001 1299.7444,-159 1309.7443,-162.5001 1309.7444,-155.5001"/>
</g>
<!-- VencidosComponent -->
<g id="node6" class="node">
<title>VencidosComponent</title>
<polygon fill="#ffffb3" stroke="#000000" points="1508.2036,-122 1373.7964,-122 1373.7964,-86 1508.2036,-86 1508.2036,-122"/>
<text text-anchor="middle" x="1441" y="-99.8" font-family="Times,serif" font-size="14.00" fill="#000000">VencidosComponent</text>
</g>
<!-- VencidosComponent&#45;&gt;ImportComponent -->
<g id="edge6" class="edge">
<title>VencidosComponent&#45;&gt;ImportComponent</title>
<path fill="none" stroke="#000000" d="M1437.9848,-122.1243C1437.9848,-136.7832 1437.9848,-155 1437.9848,-155 1437.9848,-155 1309.9392,-155 1309.9392,-155"/>
<polygon fill="#000000" stroke="#000000" points="1309.9393,-151.5001 1299.9392,-155 1309.9392,-158.5001 1309.9393,-151.5001"/>
</g>
<!-- centavos -->
<g id="node7" class="node">
<title>centavos</title>
<polygon fill="#ffffb3" stroke="#000000" points="1355.479,-122 1290.521,-122 1290.521,-86 1355.479,-86 1355.479,-122"/>
<text text-anchor="middle" x="1323" y="-99.8" font-family="Times,serif" font-size="14.00" fill="#000000">centavos</text>
</g>
<!-- centavos&#45;&gt;ImportComponent -->
<g id="edge7" class="edge">
<title>centavos&#45;&gt;ImportComponent</title>
<path fill="none" stroke="#000000" d="M1295.114,-122.1061C1295.114,-122.1061 1295.114,-140.991 1295.114,-140.991"/>
<polygon fill="#000000" stroke="#000000" points="1291.614,-140.9909 1295.114,-150.991 1298.614,-140.991 1291.614,-140.9909"/>
</g>
<!-- AplicaBonificacionDivComponent  -->
<g id="node9" class="node">
<title>AplicaBonificacionDivComponent </title>
<polygon fill="#fb8072" stroke="#000000" points="1910.9599,-252 1695.0401,-252 1695.0401,-216 1910.9599,-216 1910.9599,-252"/>
<text text-anchor="middle" x="1803" y="-229.8" font-family="Times,serif" font-size="14.00" fill="#000000">AplicaBonificacionDivComponent </text>
</g>
<!-- ImportComponent&#45;&gt;AplicaBonificacionDivComponent  -->
<g id="edge8" class="edge">
<title>ImportComponent&#45;&gt;AplicaBonificacionDivComponent </title>
<path fill="none" stroke="#000000" stroke-dasharray="5,2" d="M1300.1067,-177C1424.7325,-177 1699.7688,-177 1699.7688,-177 1699.7688,-177 1699.7688,-205.9648 1699.7688,-205.9648"/>
<polygon fill="#000000" stroke="#000000" points="1696.2688,-205.9648 1699.7688,-215.9648 1703.2688,-205.9649 1696.2688,-205.9648"/>
</g>
<!-- BonificacionComponent  -->
<g id="node10" class="node">
<title>BonificacionComponent </title>
<polygon fill="#fb8072" stroke="#000000" points="1677.6453,-252 1520.3547,-252 1520.3547,-216 1677.6453,-216 1677.6453,-252"/>
<text text-anchor="middle" x="1599" y="-229.8" font-family="Times,serif" font-size="14.00" fill="#000000">BonificacionComponent </text>
</g>
<!-- ImportComponent&#45;&gt;BonificacionComponent  -->
<g id="edge9" class="edge">
<title>ImportComponent&#45;&gt;BonificacionComponent </title>
<path fill="none" stroke="#000000" stroke-dasharray="5,2" d="M1300.0378,-180C1408.7275,-180 1626.9593,-180 1626.9593,-180 1626.9593,-180 1626.9593,-205.7181 1626.9593,-205.7181"/>
<polygon fill="#000000" stroke="#000000" points="1623.4594,-205.718 1626.9593,-215.7181 1630.4594,-205.7181 1623.4594,-205.718"/>
</g>
<!-- BonificacionDivComponent  -->
<g id="node11" class="node">
<title>BonificacionDivComponent </title>
<polygon fill="#fb8072" stroke="#000000" points="1502.1425,-252 1323.8575,-252 1323.8575,-216 1502.1425,-216 1502.1425,-252"/>
<text text-anchor="middle" x="1413" y="-229.8" font-family="Times,serif" font-size="14.00" fill="#000000">BonificacionDivComponent </text>
</g>
<!-- ImportComponent&#45;&gt;BonificacionDivComponent  -->
<g id="edge10" class="edge">
<title>ImportComponent&#45;&gt;BonificacionDivComponent </title>
<path fill="none" stroke="#000000" stroke-dasharray="5,2" d="M1299.7281,-184C1320.9635,-184 1339.7092,-184 1339.7092,-184 1339.7092,-184 1339.7092,-205.9489 1339.7092,-205.9489"/>
<polygon fill="#000000" stroke="#000000" points="1336.2092,-205.9488 1339.7092,-215.9489 1343.2092,-205.9489 1336.2092,-205.9488"/>
</g>
<!-- ConfirmComponent  -->
<g id="node12" class="node">
<title>ConfirmComponent </title>
<polygon fill="#fb8072" stroke="#000000" points="1306.2717,-252 1173.7283,-252 1173.7283,-216 1306.2717,-216 1306.2717,-252"/>
<text text-anchor="middle" x="1240" y="-229.8" font-family="Times,serif" font-size="14.00" fill="#000000">ConfirmComponent </text>
</g>
<!-- ImportComponent&#45;&gt;ConfirmComponent  -->
<g id="edge11" class="edge">
<title>ImportComponent&#45;&gt;ConfirmComponent </title>
<path fill="none" stroke="#000000" stroke-dasharray="5,2" d="M1240,-187.1061C1240,-187.1061 1240,-205.991 1240,-205.991"/>
<polygon fill="#000000" stroke="#000000" points="1236.5001,-205.9909 1240,-215.991 1243.5001,-205.991 1236.5001,-205.9909"/>
</g>
<!-- Mov_edosctaListComponent  -->
<g id="node13" class="node">
<title>Mov_edosctaListComponent </title>
<polygon fill="#fb8072" stroke="#000000" points="1156.0344,-252 973.9656,-252 973.9656,-216 1156.0344,-216 1156.0344,-252"/>
<text text-anchor="middle" x="1065" y="-229.8" font-family="Times,serif" font-size="14.00" fill="#000000">Mov_edosctaListComponent </text>
</g>
<!-- ImportComponent&#45;&gt;Mov_edosctaListComponent  -->
<g id="edge12" class="edge">
<title>ImportComponent&#45;&gt;Mov_edosctaListComponent </title>
<path fill="none" stroke="#000000" stroke-dasharray="5,2" d="M1180.0546,-184C1142.979,-184 1102.4176,-184 1102.4176,-184 1102.4176,-184 1102.4176,-205.9489 1102.4176,-205.9489"/>
<polygon fill="#000000" stroke="#000000" points="1098.9177,-205.9488 1102.4176,-215.9489 1105.9177,-205.9489 1098.9177,-205.9488"/>
</g>
<!-- VencidosComponent  -->
<g id="node14" class="node">
<title>VencidosComponent </title>
<polygon fill="#fb8072" stroke="#000000" points="955.7037,-252 818.2963,-252 818.2963,-216 955.7037,-216 955.7037,-252"/>
<text text-anchor="middle" x="887" y="-229.8" font-family="Times,serif" font-size="14.00" fill="#000000">VencidosComponent </text>
</g>
<!-- ImportComponent&#45;&gt;VencidosComponent  -->
<g id="edge13" class="edge">
<title>ImportComponent&#45;&gt;VencidosComponent </title>
<path fill="none" stroke="#000000" stroke-dasharray="5,2" d="M1180.2769,-180C1088.7963,-180 924.4522,-180 924.4522,-180 924.4522,-180 924.4522,-205.7181 924.4522,-205.7181"/>
<polygon fill="#000000" stroke="#000000" points="920.9523,-205.718 924.4522,-215.7181 927.9523,-205.7181 920.9523,-205.718"/>
</g>
<!-- centavos  -->
<g id="node15" class="node">
<title>centavos </title>
<polygon fill="#fb8072" stroke="#000000" points="800.4807,-252 731.5193,-252 731.5193,-216 800.4807,-216 800.4807,-252"/>
<text text-anchor="middle" x="766" y="-229.8" font-family="Times,serif" font-size="14.00" fill="#000000">centavos </text>
</g>
<!-- ImportComponent&#45;&gt;centavos  -->
<g id="edge14" class="edge">
<title>ImportComponent&#45;&gt;centavos </title>
<path fill="none" stroke="#000000" stroke-dasharray="5,2" d="M1179.9676,-177C1052.4208,-177 766,-177 766,-177 766,-177 766,-205.9648 766,-205.9648"/>
<polygon fill="#000000" stroke="#000000" points="762.5001,-205.9648 766,-215.9648 769.5001,-205.9649 762.5001,-205.9648"/>
</g>
<!-- AplicaBonificServiceDiv -->
<g id="node16" class="node">
<title>AplicaBonificServiceDiv</title>
<ellipse fill="#fdb462" stroke="#000000" cx="1158" cy="-104" rx="109.3642" ry="18"/>
<text text-anchor="middle" x="1158" y="-99.8" font-family="Times,serif" font-size="14.00" fill="#000000">AplicaBonificServiceDiv</text>
</g>
<!-- AplicaBonificServiceDiv&#45;&gt;ImportComponent -->
<g id="edge15" class="edge">
<title>AplicaBonificServiceDiv&#45;&gt;ImportComponent</title>
<path fill="none" stroke="#000000" d="M1223.7323,-118.4256C1223.7323,-118.4256 1223.7323,-140.8939 1223.7323,-140.8939"/>
<polygon fill="#000000" stroke="#000000" points="1220.2324,-140.8938 1223.7323,-150.8939 1227.2324,-140.8939 1220.2324,-140.8938"/>
</g>
<!-- AplicarService -->
<g id="node17" class="node">
<title>AplicarService</title>
<ellipse fill="#fdb462" stroke="#000000" cx="962" cy="-104" rx="68.8946" ry="18"/>
<text text-anchor="middle" x="962" y="-99.8" font-family="Times,serif" font-size="14.00" fill="#000000">AplicarService</text>
</g>
<!-- AplicarService&#45;&gt;ImportComponent -->
<g id="edge16" class="edge">
<title>AplicarService&#45;&gt;ImportComponent</title>
<path fill="none" stroke="#000000" d="M1002.465,-118.7513C1002.465,-133.8136 1002.465,-155 1002.465,-155 1002.465,-155 1170.0599,-155 1170.0599,-155"/>
<polygon fill="#000000" stroke="#000000" points="1170.0599,-158.5001 1180.0599,-155 1170.0599,-151.5001 1170.0599,-158.5001"/>
</g>
<!-- BonificDivService -->
<g id="node18" class="node">
<title>BonificDivService</title>
<ellipse fill="#fdb462" stroke="#000000" cx="792" cy="-104" rx="83.3828" ry="18"/>
<text text-anchor="middle" x="792" y="-99.8" font-family="Times,serif" font-size="14.00" fill="#000000">BonificDivService</text>
</g>
<!-- BonificDivService&#45;&gt;ImportComponent -->
<g id="edge17" class="edge">
<title>BonificDivService&#45;&gt;ImportComponent</title>
<path fill="none" stroke="#000000" d="M846.7948,-117.5955C846.7948,-133.8826 846.7948,-159 846.7948,-159 846.7948,-159 1170.2806,-159 1170.2806,-159"/>
<polygon fill="#000000" stroke="#000000" points="1170.2806,-162.5001 1180.2806,-159 1170.2806,-155.5001 1170.2806,-162.5001"/>
</g>
<!-- BonificService -->
<g id="node19" class="node">
<title>BonificService</title>
<ellipse fill="#fdb462" stroke="#000000" cx="622" cy="-104" rx="68.9158" ry="18"/>
<text text-anchor="middle" x="622" y="-99.8" font-family="Times,serif" font-size="14.00" fill="#000000">BonificService</text>
</g>
<!-- BonificService&#45;&gt;ImportComponent -->
<g id="edge18" class="edge">
<title>BonificService&#45;&gt;ImportComponent</title>
<path fill="none" stroke="#000000" d="M622,-122.0336C622,-139.0597 622,-162 622,-162 622,-162 1170.182,-162 1170.182,-162"/>
<polygon fill="#000000" stroke="#000000" points="1170.1821,-165.5001 1180.182,-162 1170.182,-158.5001 1170.1821,-165.5001"/>
</g>
<!-- ConfirmService -->
<g id="node20" class="node">
<title>ConfirmService</title>
<ellipse fill="#fdb462" stroke="#000000" cx="462" cy="-104" rx="72.9295" ry="18"/>
<text text-anchor="middle" x="462" y="-99.8" font-family="Times,serif" font-size="14.00" fill="#000000">ConfirmService</text>
</g>
<!-- ConfirmService&#45;&gt;ImportComponent -->
<g id="edge19" class="edge">
<title>ConfirmService&#45;&gt;ImportComponent</title>
<path fill="none" stroke="#000000" d="M462,-122.2667C462,-140.5552 462,-166 462,-166 462,-166 1170.2435,-166 1170.2435,-166"/>
<polygon fill="#000000" stroke="#000000" points="1170.2435,-169.5001 1180.2435,-166 1170.2434,-162.5001 1170.2435,-169.5001"/>
</g>
<!-- Mov_edoctaService -->
<g id="node21" class="node">
<title>Mov_edoctaService</title>
<ellipse fill="#fdb462" stroke="#000000" cx="283" cy="-104" rx="88.0249" ry="18"/>
<text text-anchor="middle" x="283" y="-99.8" font-family="Times,serif" font-size="14.00" fill="#000000">Mov_edoctaService</text>
</g>
<!-- Mov_edoctaService&#45;&gt;ImportComponent -->
<g id="edge20" class="edge">
<title>Mov_edoctaService&#45;&gt;ImportComponent</title>
<path fill="none" stroke="#000000" d="M283,-122.1061C283,-141.3391 283,-169 283,-169 283,-169 1170.1354,-169 1170.1354,-169"/>
<polygon fill="#000000" stroke="#000000" points="1170.1354,-172.5001 1180.1354,-169 1170.1353,-165.5001 1170.1354,-172.5001"/>
</g>
<!-- VencidosService -->
<g id="node22" class="node">
<title>VencidosService</title>
<ellipse fill="#fdb462" stroke="#000000" cx="100" cy="-104" rx="76.4227" ry="18"/>
<text text-anchor="middle" x="100" y="-99.8" font-family="Times,serif" font-size="14.00" fill="#000000">VencidosService</text>
</g>
<!-- VencidosService&#45;&gt;ImportComponent -->
<g id="edge21" class="edge">
<title>VencidosService&#45;&gt;ImportComponent</title>
<path fill="none" stroke="#000000" d="M100,-122.1289C100,-142.5724 100,-173 100,-173 100,-173 1169.9142,-173 1169.9142,-173"/>
<polygon fill="#000000" stroke="#000000" points="1169.9143,-176.5001 1179.9142,-173 1169.9142,-169.5001 1169.9143,-176.5001"/>
</g>
</g>
</svg>
