<?xml version="1.0" encoding="UTF-8" standalone="no"?>
<!DOCTYPE svg PUBLIC "-//W3C//DTD SVG 1.1//EN"
 "http://www.w3.org/Graphics/SVG/1.1/DTD/svg11.dtd">
<!-- Generated by graphviz version 2.40.1 (20161225.0304)
 -->
<!-- Title: dependencies Pages: 1 -->
<svg width="684pt" height="211pt"
 viewBox="0.00 0.00 684.00 211.00" xmlns="http://www.w3.org/2000/svg" xmlns:xlink="http://www.w3.org/1999/xlink">
<g id="graph0" class="graph" transform="scale(1 1) rotate(0) translate(4 207)">
<title>dependencies</title>
<polygon fill="#ffffff" stroke="transparent" points="-4,4 -4,-207 680,-207 680,4 -4,4"/>
<text text-anchor="start" x="317.0091" y="-42.4" font-family="sans-serif" font-weight="bold" font-size="14.00" fill="#000000">Legend</text>
<polygon fill="#ffffb3" stroke="transparent" points="104,-10 104,-30 124,-30 124,-10 104,-10"/>
<text text-anchor="start" x="127.629" y="-15.4" font-family="sans-serif" font-size="14.00" fill="#000000"> &#160;Declarations</text>
<polygon fill="#8dd3c7" stroke="transparent" points="217,-10 217,-30 237,-30 237,-10 217,-10"/>
<text text-anchor="start" x="240.7251" y="-15.4" font-family="sans-serif" font-size="14.00" fill="#000000"> &#160;Module</text>
<polygon fill="#80b1d3" stroke="transparent" points="303,-10 303,-30 323,-30 323,-10 303,-10"/>
<text text-anchor="start" x="326.7812" y="-15.4" font-family="sans-serif" font-size="14.00" fill="#000000"> &#160;Bootstrap</text>
<polygon fill="#fdb462" stroke="transparent" points="400,-10 400,-30 420,-30 420,-10 400,-10"/>
<text text-anchor="start" x="423.6732" y="-15.4" font-family="sans-serif" font-size="14.00" fill="#000000"> &#160;Providers</text>
<polygon fill="#fb8072" stroke="transparent" points="496,-10 496,-30 516,-30 516,-10 496,-10"/>
<text text-anchor="start" x="519.7258" y="-15.4" font-family="sans-serif" font-size="14.00" fill="#000000"> &#160;Exports</text>
<g id="clust1" class="cluster">
<title>cluster_Aplica_Mov_diversosModule</title>
<polygon fill="none" stroke="#000000" stroke-dasharray="1,5" points="8,-70 8,-195 668,-195 668,-70 8,-70"/>
</g>
<g id="clust2" class="cluster">
<title>cluster_Aplica_Mov_diversosModule_declarations</title>
<polygon fill="none" stroke="#000000" points="416,-78 416,-130 660,-130 660,-78 416,-78"/>
</g>
<g id="clust7" class="cluster">
<title>cluster_Aplica_Mov_diversosModule_providers</title>
<polygon fill="none" stroke="#000000" points="16,-78 16,-130 408,-130 408,-78 16,-78"/>
</g>
<!-- Aplica_Mov_diversosListComponent -->
<g id="node1" class="node">
<title>Aplica_Mov_diversosListComponent</title>
<polygon fill="#ffffb3" stroke="#000000" points="651.5279,-122 424.4721,-122 424.4721,-86 651.5279,-86 651.5279,-122"/>
<text text-anchor="middle" x="538" y="-99.8" font-family="Times,serif" font-size="14.00" fill="#000000">Aplica_Mov_diversosListComponent</text>
</g>
<!-- Aplica_Mov_diversosModule -->
<g id="node2" class="node">
<title>Aplica_Mov_diversosModule</title>
<polygon fill="#8dd3c7" stroke="#000000" points="365.9664,-187 362.9664,-191 341.9664,-191 338.9664,-187 182.0336,-187 182.0336,-151 365.9664,-151 365.9664,-187"/>
<text text-anchor="middle" x="274" y="-164.8" font-family="Times,serif" font-size="14.00" fill="#000000">Aplica_Mov_diversosModule</text>
</g>
<!-- Aplica_Mov_diversosListComponent&#45;&gt;Aplica_Mov_diversosModule -->
<g id="edge1" class="edge">
<title>Aplica_Mov_diversosListComponent&#45;&gt;Aplica_Mov_diversosModule</title>
<path fill="none" stroke="#000000" d="M538,-122.1061C538,-141.3391 538,-169 538,-169 538,-169 376.3344,-169 376.3344,-169"/>
<polygon fill="#000000" stroke="#000000" points="376.3344,-165.5001 366.3344,-169 376.3344,-172.5001 376.3344,-165.5001"/>
</g>
<!-- Aplica_Mov_diversosService -->
<g id="node3" class="node">
<title>Aplica_Mov_diversosService</title>
<ellipse fill="#fdb462" stroke="#000000" cx="274" cy="-104" rx="125.6247" ry="18"/>
<text text-anchor="middle" x="274" y="-99.8" font-family="Times,serif" font-size="14.00" fill="#000000">Aplica_Mov_diversosService</text>
</g>
<!-- Aplica_Mov_diversosService&#45;&gt;Aplica_Mov_diversosModule -->
<g id="edge2" class="edge">
<title>Aplica_Mov_diversosService&#45;&gt;Aplica_Mov_diversosModule</title>
<path fill="none" stroke="#000000" d="M274,-122.1061C274,-122.1061 274,-140.991 274,-140.991"/>
<polygon fill="#000000" stroke="#000000" points="270.5001,-140.9909 274,-150.991 277.5001,-140.991 270.5001,-140.9909"/>
</g>
<!-- ServiceUrl -->
<g id="node4" class="node">
<title>ServiceUrl</title>
<ellipse fill="#fdb462" stroke="#000000" cx="77" cy="-104" rx="52.7238" ry="18"/>
<text text-anchor="middle" x="77" y="-99.8" font-family="Times,serif" font-size="14.00" fill="#000000">ServiceUrl</text>
</g>
<!-- ServiceUrl&#45;&gt;Aplica_Mov_diversosModule -->
<g id="edge3" class="edge">
<title>ServiceUrl&#45;&gt;Aplica_Mov_diversosModule</title>
<path fill="none" stroke="#000000" d="M77,-122.1061C77,-141.3391 77,-169 77,-169 77,-169 171.8447,-169 171.8447,-169"/>
<polygon fill="#000000" stroke="#000000" points="171.8448,-172.5001 181.8447,-169 171.8447,-165.5001 171.8448,-172.5001"/>
</g>
</g>
</svg>
