<?xml version="1.0" encoding="UTF-8" standalone="no"?>
<!DOCTYPE svg PUBLIC "-//W3C//DTD SVG 1.1//EN"
 "http://www.w3.org/Graphics/SVG/1.1/DTD/svg11.dtd">
<!-- Generated by graphviz version 2.40.1 (20161225.0304)
 -->
<!-- Title: dependencies Pages: 1 -->
<svg width="4089pt" height="284pt"
 viewBox="0.00 0.00 4089.00 284.00" xmlns="http://www.w3.org/2000/svg" xmlns:xlink="http://www.w3.org/1999/xlink">
<g id="graph0" class="graph" transform="scale(1 1) rotate(0) translate(4 280)">
<title>dependencies</title>
<polygon fill="#ffffff" stroke="transparent" points="-4,4 -4,-280 4085,-280 4085,4 -4,4"/>
<text text-anchor="start" x="2019.5091" y="-42.4" font-family="sans-serif" font-weight="bold" font-size="14.00" fill="#000000">Legend</text>
<polygon fill="#ffffb3" stroke="transparent" points="1806.5,-10 1806.5,-30 1826.5,-30 1826.5,-10 1806.5,-10"/>
<text text-anchor="start" x="1830.129" y="-15.4" font-family="sans-serif" font-size="14.00" fill="#000000"> &#160;Declarations</text>
<polygon fill="#8dd3c7" stroke="transparent" points="1919.5,-10 1919.5,-30 1939.5,-30 1939.5,-10 1919.5,-10"/>
<text text-anchor="start" x="1943.2251" y="-15.4" font-family="sans-serif" font-size="14.00" fill="#000000"> &#160;Module</text>
<polygon fill="#80b1d3" stroke="transparent" points="2005.5,-10 2005.5,-30 2025.5,-30 2025.5,-10 2005.5,-10"/>
<text text-anchor="start" x="2029.2812" y="-15.4" font-family="sans-serif" font-size="14.00" fill="#000000"> &#160;Bootstrap</text>
<polygon fill="#fdb462" stroke="transparent" points="2102.5,-10 2102.5,-30 2122.5,-30 2122.5,-10 2102.5,-10"/>
<text text-anchor="start" x="2126.1732" y="-15.4" font-family="sans-serif" font-size="14.00" fill="#000000"> &#160;Providers</text>
<polygon fill="#fb8072" stroke="transparent" points="2198.5,-10 2198.5,-30 2218.5,-30 2218.5,-10 2198.5,-10"/>
<text text-anchor="start" x="2222.2258" y="-15.4" font-family="sans-serif" font-size="14.00" fill="#000000"> &#160;Exports</text>
<g id="clust1" class="cluster">
<title>cluster_AppModule</title>
<polygon fill="none" stroke="#000000" stroke-dasharray="1,5" points="8,-70 8,-268 4073,-268 4073,-70 8,-70"/>
</g>
<g id="clust2" class="cluster">
<title>cluster_AppModule_declarations</title>
<polygon fill="none" stroke="#000000" points="3418,-78 3418,-130 4065,-130 4065,-78 3418,-78"/>
</g>
<g id="clust8" class="cluster">
<title>cluster_AppModule_imports</title>
<polygon fill="none" stroke="#000000" points="797,-78 797,-130 3410,-130 3410,-78 797,-78"/>
</g>
<g id="clust10" class="cluster">
<title>cluster_AppModule_bootstrap</title>
<polygon fill="none" stroke="#000000" points="1903,-208 1903,-260 2163,-260 2163,-208 1903,-208"/>
</g>
<g id="clust11" class="cluster">
<title>cluster_AppModule_providers</title>
<polygon fill="none" stroke="#000000" points="16,-78 16,-130 789,-130 789,-78 16,-78"/>
</g>
<!-- AlertComponent -->
<g id="node1" class="node">
<title>AlertComponent</title>
<polygon fill="#ffffb3" stroke="#000000" points="4057.0954,-122 3946.9046,-122 3946.9046,-86 4057.0954,-86 4057.0954,-122"/>
<text text-anchor="middle" x="4002" y="-99.8" font-family="Times,serif" font-size="14.00" fill="#000000">AlertComponent</text>
</g>
<!-- AppModule -->
<g id="node6" class="node">
<title>AppModule</title>
<polygon fill="#8dd3c7" stroke="#000000" points="2076.6571,-187 2073.6571,-191 2052.6571,-191 2049.6571,-187 1993.3429,-187 1993.3429,-151 2076.6571,-151 2076.6571,-187"/>
<text text-anchor="middle" x="2035" y="-164.8" font-family="Times,serif" font-size="14.00" fill="#000000">AppModule</text>
</g>
<!-- AlertComponent&#45;&gt;AppModule -->
<g id="edge1" class="edge">
<title>AlertComponent&#45;&gt;AppModule</title>
<path fill="none" stroke="#000000" d="M4002,-122.3802C4002,-146.2785 4002,-185 4002,-185 4002,-185 2086.9936,-185 2086.9936,-185"/>
<polygon fill="#000000" stroke="#000000" points="2086.9936,-181.5001 2076.9936,-185 2086.9936,-188.5001 2086.9936,-181.5001"/>
</g>
<!-- AppComponent -->
<g id="node2" class="node">
<title>AppComponent</title>
<polygon fill="#ffffb3" stroke="#000000" points="3928.9399,-122 3823.0601,-122 3823.0601,-86 3928.9399,-86 3928.9399,-122"/>
<text text-anchor="middle" x="3876" y="-99.8" font-family="Times,serif" font-size="14.00" fill="#000000">AppComponent</text>
</g>
<!-- AppComponent&#45;&gt;AppModule -->
<g id="edge2" class="edge">
<title>AppComponent&#45;&gt;AppModule</title>
<path fill="none" stroke="#000000" d="M3876,-122.0908C3876,-145.1328 3876,-182 3876,-182 3876,-182 2086.9109,-182 2086.9109,-182"/>
<polygon fill="#000000" stroke="#000000" points="2086.9109,-178.5001 2076.9109,-182 2086.9108,-185.5001 2086.9109,-178.5001"/>
</g>
<!-- HomeComponent -->
<g id="node3" class="node">
<title>HomeComponent</title>
<polygon fill="#ffffb3" stroke="#000000" points="3805.5451,-122 3690.4549,-122 3690.4549,-86 3805.5451,-86 3805.5451,-122"/>
<text text-anchor="middle" x="3748" y="-99.8" font-family="Times,serif" font-size="14.00" fill="#000000">HomeComponent</text>
</g>
<!-- HomeComponent&#45;&gt;AppModule -->
<g id="edge3" class="edge">
<title>HomeComponent&#45;&gt;AppModule</title>
<path fill="none" stroke="#000000" d="M3748,-122.1554C3748,-144.3519 3748,-179 3748,-179 3748,-179 2086.9187,-179 2086.9187,-179"/>
<polygon fill="#000000" stroke="#000000" points="2086.9187,-175.5001 2076.9187,-179 2086.9186,-182.5001 2086.9187,-175.5001"/>
</g>
<!-- LoginComponent -->
<g id="node4" class="node">
<title>LoginComponent</title>
<polygon fill="#ffffb3" stroke="#000000" points="3672.2758,-122 3557.7242,-122 3557.7242,-86 3672.2758,-86 3672.2758,-122"/>
<text text-anchor="middle" x="3615" y="-99.8" font-family="Times,serif" font-size="14.00" fill="#000000">LoginComponent</text>
</g>
<!-- LoginComponent&#45;&gt;AppModule -->
<g id="edge4" class="edge">
<title>LoginComponent&#45;&gt;AppModule</title>
<path fill="none" stroke="#000000" d="M3615,-122.1686C3615,-143.498 3615,-176 3615,-176 3615,-176 2086.8542,-176 2086.8542,-176"/>
<polygon fill="#000000" stroke="#000000" points="2086.8542,-172.5001 2076.8542,-176 2086.8542,-179.5001 2086.8542,-172.5001"/>
</g>
<!-- MenuComponent -->
<g id="node5" class="node">
<title>MenuComponent</title>
<polygon fill="#ffffb3" stroke="#000000" points="3539.9916,-122 3426.0084,-122 3426.0084,-86 3539.9916,-86 3539.9916,-122"/>
<text text-anchor="middle" x="3483" y="-99.8" font-family="Times,serif" font-size="14.00" fill="#000000">MenuComponent</text>
</g>
<!-- MenuComponent&#45;&gt;AppModule -->
<g id="edge5" class="edge">
<title>MenuComponent&#45;&gt;AppModule</title>
<path fill="none" stroke="#000000" d="M3483,-122.0267C3483,-142.7672 3483,-174 3483,-174 3483,-174 2086.7742,-174 2086.7742,-174"/>
<polygon fill="#000000" stroke="#000000" points="2086.7743,-170.5001 2076.7742,-174 2086.7742,-177.5001 2086.7743,-170.5001"/>
</g>
<!-- AppComponent  -->
<g id="node22" class="node">
<title>AppComponent </title>
<polygon fill="#80b1d3" stroke="#000000" points="2155.439,-252 2046.561,-252 2046.561,-216 2155.439,-216 2155.439,-252"/>
<text text-anchor="middle" x="2101" y="-229.8" font-family="Times,serif" font-size="14.00" fill="#000000">AppComponent </text>
</g>
<!-- AppModule&#45;&gt;AppComponent  -->
<g id="edge21" class="edge">
<title>AppModule&#45;&gt;AppComponent </title>
<path fill="none" stroke="#000000" stroke-dasharray="1,5" d="M2061.6794,-187.1061C2061.6794,-187.1061 2061.6794,-205.991 2061.6794,-205.991"/>
<polygon fill="#000000" stroke="#000000" points="2058.1794,-205.9909 2061.6794,-215.991 2065.1794,-205.991 2058.1794,-205.9909"/>
</g>
<!-- MenuComponent  -->
<g id="node23" class="node">
<title>MenuComponent </title>
<polygon fill="#80b1d3" stroke="#000000" points="2028.9926,-252 1911.0074,-252 1911.0074,-216 2028.9926,-216 2028.9926,-252"/>
<text text-anchor="middle" x="1970" y="-229.8" font-family="Times,serif" font-size="14.00" fill="#000000">MenuComponent </text>
</g>
<!-- AppModule&#45;&gt;MenuComponent  -->
<g id="edge22" class="edge">
<title>AppModule&#45;&gt;MenuComponent </title>
<path fill="none" stroke="#000000" stroke-dasharray="1,5" d="M2010.9588,-187.1061C2010.9588,-187.1061 2010.9588,-205.991 2010.9588,-205.991"/>
<polygon fill="#000000" stroke="#000000" points="2007.4589,-205.9909 2010.9588,-215.991 2014.4589,-205.991 2007.4589,-205.9909"/>
</g>
<!-- Aplica_Mov_diversosModule -->
<g id="node7" class="node">
<title>Aplica_Mov_diversosModule</title>
<polygon fill="#8dd3c7" stroke="#000000" points="3401.9664,-122 3398.9664,-126 3377.9664,-126 3374.9664,-122 3218.0336,-122 3218.0336,-86 3401.9664,-86 3401.9664,-122"/>
<text text-anchor="middle" x="3310" y="-99.8" font-family="Times,serif" font-size="14.00" fill="#000000">Aplica_Mov_diversosModule</text>
</g>
<!-- Aplica_Mov_diversosModule&#45;&gt;AppModule -->
<g id="edge6" class="edge">
<title>Aplica_Mov_diversosModule&#45;&gt;AppModule</title>
<path fill="none" stroke="#000000" d="M3310,-122.308C3310,-142.1455 3310,-171 3310,-171 3310,-171 2086.6966,-171 2086.6966,-171"/>
<polygon fill="#000000" stroke="#000000" points="2086.6967,-167.5001 2076.6966,-171 2086.6966,-174.5001 2086.6967,-167.5001"/>
</g>
<!-- Aplica_Mov_diversosRoutingModule -->
<g id="node8" class="node">
<title>Aplica_Mov_diversosRoutingModule</title>
<polygon fill="#8dd3c7" stroke="#000000" points="3199.5842,-122 3196.5842,-126 3175.5842,-126 3172.5842,-122 2970.4158,-122 2970.4158,-86 3199.5842,-86 3199.5842,-122"/>
<text text-anchor="middle" x="3085" y="-99.8" font-family="Times,serif" font-size="14.00" fill="#000000">Aplica_Mov_diversosRoutingModule</text>
</g>
<!-- Aplica_Mov_diversosRoutingModule&#45;&gt;AppModule -->
<g id="edge7" class="edge">
<title>Aplica_Mov_diversosRoutingModule&#45;&gt;AppModule</title>
<path fill="none" stroke="#000000" d="M3085,-122.1686C3085,-141.0898 3085,-168 3085,-168 3085,-168 2086.8092,-168 2086.8092,-168"/>
<polygon fill="#000000" stroke="#000000" points="2086.8092,-164.5001 2076.8092,-168 2086.8092,-171.5001 2086.8092,-164.5001"/>
</g>
<!-- Aplica_Mov_edosctaModule -->
<g id="node9" class="node">
<title>Aplica_Mov_edosctaModule</title>
<polygon fill="#8dd3c7" stroke="#000000" points="2952.7906,-122 2949.7906,-126 2928.7906,-126 2925.7906,-122 2773.2094,-122 2773.2094,-86 2952.7906,-86 2952.7906,-122"/>
<text text-anchor="middle" x="2863" y="-99.8" font-family="Times,serif" font-size="14.00" fill="#000000">Aplica_Mov_edosctaModule</text>
</g>
<!-- Aplica_Mov_edosctaModule&#45;&gt;AppModule -->
<g id="edge8" class="edge">
<title>Aplica_Mov_edosctaModule&#45;&gt;AppModule</title>
<path fill="none" stroke="#000000" d="M2863,-122.302C2863,-140.2699 2863,-165 2863,-165 2863,-165 2086.9131,-165 2086.9131,-165"/>
<polygon fill="#000000" stroke="#000000" points="2086.9131,-161.5001 2076.9131,-165 2086.9131,-168.5001 2086.9131,-161.5001"/>
</g>
<!-- Aplica_Mov_edosctaRoutingModule -->
<g id="node10" class="node">
<title>Aplica_Mov_edosctaRoutingModule</title>
<polygon fill="#8dd3c7" stroke="#000000" points="2755.4086,-122 2752.4086,-126 2731.4086,-126 2728.4086,-122 2530.5914,-122 2530.5914,-86 2755.4086,-86 2755.4086,-122"/>
<text text-anchor="middle" x="2643" y="-99.8" font-family="Times,serif" font-size="14.00" fill="#000000">Aplica_Mov_edosctaRoutingModule</text>
</g>
<!-- Aplica_Mov_edosctaRoutingModule&#45;&gt;AppModule -->
<g id="edge9" class="edge">
<title>Aplica_Mov_edosctaRoutingModule&#45;&gt;AppModule</title>
<path fill="none" stroke="#000000" d="M2643,-122.0225C2643,-139.3734 2643,-163 2643,-163 2643,-163 2086.7903,-163 2086.7903,-163"/>
<polygon fill="#000000" stroke="#000000" points="2086.7903,-159.5001 2076.7903,-163 2086.7903,-166.5001 2086.7903,-159.5001"/>
</g>
<!-- AppRoutingModule -->
<g id="node11" class="node">
<title>AppRoutingModule</title>
<polygon fill="#8dd3c7" stroke="#000000" points="2512.2744,-122 2509.2744,-126 2488.2744,-126 2485.2744,-122 2383.7256,-122 2383.7256,-86 2512.2744,-86 2512.2744,-122"/>
<text text-anchor="middle" x="2448" y="-99.8" font-family="Times,serif" font-size="14.00" fill="#000000">AppRoutingModule</text>
</g>
<!-- AppRoutingModule&#45;&gt;AppModule -->
<g id="edge10" class="edge">
<title>AppRoutingModule&#45;&gt;AppModule</title>
<path fill="none" stroke="#000000" d="M2448,-122.027C2448,-138.3976 2448,-160 2448,-160 2448,-160 2086.8735,-160 2086.8735,-160"/>
<polygon fill="#000000" stroke="#000000" points="2086.8735,-156.5001 2076.8735,-160 2086.8734,-163.5001 2086.8735,-156.5001"/>
</g>
<!-- CajaModule -->
<g id="node12" class="node">
<title>CajaModule</title>
<polygon fill="#8dd3c7" stroke="#000000" points="2365.7065,-122 2362.7065,-126 2341.7065,-126 2338.7065,-122 2280.2935,-122 2280.2935,-86 2365.7065,-86 2365.7065,-122"/>
<text text-anchor="middle" x="2323" y="-99.8" font-family="Times,serif" font-size="14.00" fill="#000000">CajaModule</text>
</g>
<!-- CajaModule&#45;&gt;AppModule -->
<g id="edge11" class="edge">
<title>CajaModule&#45;&gt;AppModule</title>
<path fill="none" stroke="#000000" d="M2323,-122.2396C2323,-137.5706 2323,-157 2323,-157 2323,-157 2086.8777,-157 2086.8777,-157"/>
<polygon fill="#000000" stroke="#000000" points="2086.8777,-153.5001 2076.8777,-157 2086.8776,-160.5001 2086.8777,-153.5001"/>
</g>
<!-- CajaRoutingModule -->
<g id="node13" class="node">
<title>CajaRoutingModule</title>
<polygon fill="#8dd3c7" stroke="#000000" points="2262.3244,-122 2259.3244,-126 2238.3244,-126 2235.3244,-122 2131.6756,-122 2131.6756,-86 2262.3244,-86 2262.3244,-122"/>
<text text-anchor="middle" x="2197" y="-99.8" font-family="Times,serif" font-size="14.00" fill="#000000">CajaRoutingModule</text>
</g>
<!-- CajaRoutingModule&#45;&gt;AppModule -->
<g id="edge12" class="edge">
<title>CajaRoutingModule&#45;&gt;AppModule</title>
<path fill="none" stroke="#000000" d="M2143.6538,-122.0511C2143.6538,-136.373 2143.6538,-154 2143.6538,-154 2143.6538,-154 2086.6976,-154 2086.6976,-154"/>
<polygon fill="#000000" stroke="#000000" points="2086.6977,-150.5001 2076.6976,-154 2086.6976,-157.5001 2086.6977,-150.5001"/>
</g>
<!-- CambiaPasswordModule -->
<g id="node14" class="node">
<title>CambiaPasswordModule</title>
<polygon fill="#8dd3c7" stroke="#000000" points="2113.2506,-122 2110.2506,-126 2089.2506,-126 2086.2506,-122 1956.7494,-122 1956.7494,-86 2113.2506,-86 2113.2506,-122"/>
<text text-anchor="middle" x="2035" y="-99.8" font-family="Times,serif" font-size="14.00" fill="#000000">CambiaPasswordModule</text>
</g>
<!-- CambiaPasswordModule&#45;&gt;AppModule -->
<g id="edge13" class="edge">
<title>CambiaPasswordModule&#45;&gt;AppModule</title>
<path fill="none" stroke="#000000" d="M2035,-122.1061C2035,-122.1061 2035,-140.991 2035,-140.991"/>
<polygon fill="#000000" stroke="#000000" points="2031.5001,-140.9909 2035,-150.991 2038.5001,-140.991 2031.5001,-140.9909"/>
</g>
<!-- CatalogosModule -->
<g id="node15" class="node">
<title>CatalogosModule</title>
<polygon fill="#8dd3c7" stroke="#000000" points="1938.5423,-122 1935.5423,-126 1914.5423,-126 1911.5423,-122 1823.4577,-122 1823.4577,-86 1938.5423,-86 1938.5423,-122"/>
<text text-anchor="middle" x="1881" y="-99.8" font-family="Times,serif" font-size="14.00" fill="#000000">CatalogosModule</text>
</g>
<!-- CatalogosModule&#45;&gt;AppModule -->
<g id="edge14" class="edge">
<title>CatalogosModule&#45;&gt;AppModule</title>
<path fill="none" stroke="#000000" d="M1925.0125,-122.0511C1925.0125,-136.373 1925.0125,-154 1925.0125,-154 1925.0125,-154 1983.1047,-154 1983.1047,-154"/>
<polygon fill="#000000" stroke="#000000" points="1983.1047,-157.5001 1993.1047,-154 1983.1046,-150.5001 1983.1047,-157.5001"/>
</g>
<!-- CatalogosRoutingModule -->
<g id="node16" class="node">
<title>CatalogosRoutingModule</title>
<polygon fill="#8dd3c7" stroke="#000000" points="1805.1596,-122 1802.1596,-126 1781.1596,-126 1778.1596,-122 1644.8404,-122 1644.8404,-86 1805.1596,-86 1805.1596,-122"/>
<text text-anchor="middle" x="1725" y="-99.8" font-family="Times,serif" font-size="14.00" fill="#000000">CatalogosRoutingModule</text>
</g>
<!-- CatalogosRoutingModule&#45;&gt;AppModule -->
<g id="edge15" class="edge">
<title>CatalogosRoutingModule&#45;&gt;AppModule</title>
<path fill="none" stroke="#000000" d="M1725,-122.2396C1725,-137.5706 1725,-157 1725,-157 1725,-157 1983.192,-157 1983.192,-157"/>
<polygon fill="#000000" stroke="#000000" points="1983.1921,-160.5001 1993.192,-157 1983.192,-153.5001 1983.1921,-160.5001"/>
</g>
<!-- ContactoModule -->
<g id="node17" class="node">
<title>ContactoModule</title>
<polygon fill="#8dd3c7" stroke="#000000" points="1627.0968,-122 1624.0968,-126 1603.0968,-126 1600.0968,-122 1516.9032,-122 1516.9032,-86 1627.0968,-86 1627.0968,-122"/>
<text text-anchor="middle" x="1572" y="-99.8" font-family="Times,serif" font-size="14.00" fill="#000000">ContactoModule</text>
</g>
<!-- ContactoModule&#45;&gt;AppModule -->
<g id="edge16" class="edge">
<title>ContactoModule&#45;&gt;AppModule</title>
<path fill="none" stroke="#000000" d="M1572,-122.027C1572,-138.3976 1572,-160 1572,-160 1572,-160 1983.0952,-160 1983.0952,-160"/>
<polygon fill="#000000" stroke="#000000" points="1983.0953,-163.5001 1993.0952,-160 1983.0952,-156.5001 1983.0953,-163.5001"/>
</g>
<!-- Mov_diversosModule -->
<g id="node18" class="node">
<title>Mov_diversosModule</title>
<polygon fill="#8dd3c7" stroke="#000000" points="1498.6498,-122 1495.6498,-126 1474.6498,-126 1471.6498,-122 1359.3502,-122 1359.3502,-86 1498.6498,-86 1498.6498,-122"/>
<text text-anchor="middle" x="1429" y="-99.8" font-family="Times,serif" font-size="14.00" fill="#000000">Mov_diversosModule</text>
</g>
<!-- Mov_diversosModule&#45;&gt;AppModule -->
<g id="edge17" class="edge">
<title>Mov_diversosModule&#45;&gt;AppModule</title>
<path fill="none" stroke="#000000" d="M1429,-122.0225C1429,-139.3734 1429,-163 1429,-163 1429,-163 1982.8684,-163 1982.8684,-163"/>
<polygon fill="#000000" stroke="#000000" points="1982.8684,-166.5001 1992.8684,-163 1982.8684,-159.5001 1982.8684,-166.5001"/>
</g>
<!-- Mov_diversosRoutingModule -->
<g id="node19" class="node">
<title>Mov_diversosRoutingModule</title>
<polygon fill="#8dd3c7" stroke="#000000" points="1341.2673,-122 1338.2673,-126 1317.2673,-126 1314.2673,-122 1156.7327,-122 1156.7327,-86 1341.2673,-86 1341.2673,-122"/>
<text text-anchor="middle" x="1249" y="-99.8" font-family="Times,serif" font-size="14.00" fill="#000000">Mov_diversosRoutingModule</text>
</g>
<!-- Mov_diversosRoutingModule&#45;&gt;AppModule -->
<g id="edge18" class="edge">
<title>Mov_diversosRoutingModule&#45;&gt;AppModule</title>
<path fill="none" stroke="#000000" d="M1249,-122.302C1249,-140.2699 1249,-165 1249,-165 1249,-165 1983.2962,-165 1983.2962,-165"/>
<polygon fill="#000000" stroke="#000000" points="1983.2962,-168.5001 1993.2962,-165 1983.2961,-161.5001 1983.2962,-168.5001"/>
</g>
<!-- Mov_edosctaModule -->
<g id="node20" class="node">
<title>Mov_edosctaModule</title>
<polygon fill="#8dd3c7" stroke="#000000" points="1138.4734,-122 1135.4734,-126 1114.4734,-126 1111.4734,-122 1003.5266,-122 1003.5266,-86 1138.4734,-86 1138.4734,-122"/>
<text text-anchor="middle" x="1071" y="-99.8" font-family="Times,serif" font-size="14.00" fill="#000000">Mov_edosctaModule</text>
</g>
<!-- Mov_edosctaModule&#45;&gt;AppModule -->
<g id="edge19" class="edge">
<title>Mov_edosctaModule&#45;&gt;AppModule</title>
<path fill="none" stroke="#000000" d="M1071,-122.1686C1071,-141.0898 1071,-168 1071,-168 1071,-168 1983.2687,-168 1983.2687,-168"/>
<polygon fill="#000000" stroke="#000000" points="1983.2687,-171.5001 1993.2687,-168 1983.2687,-164.5001 1983.2687,-171.5001"/>
</g>
<!-- Mov_edosctaRoutingModule -->
<g id="node21" class="node">
<title>Mov_edosctaRoutingModule</title>
<polygon fill="#8dd3c7" stroke="#000000" points="985.0912,-122 982.0912,-126 961.0912,-126 958.0912,-122 804.9088,-122 804.9088,-86 985.0912,-86 985.0912,-122"/>
<text text-anchor="middle" x="895" y="-99.8" font-family="Times,serif" font-size="14.00" fill="#000000">Mov_edosctaRoutingModule</text>
</g>
<!-- Mov_edosctaRoutingModule&#45;&gt;AppModule -->
<g id="edge20" class="edge">
<title>Mov_edosctaRoutingModule&#45;&gt;AppModule</title>
<path fill="none" stroke="#000000" d="M895,-122.308C895,-142.1455 895,-171 895,-171 895,-171 1983.0748,-171 1983.0748,-171"/>
<polygon fill="#000000" stroke="#000000" points="1983.0748,-174.5001 1993.0748,-171 1983.0748,-167.5001 1983.0748,-174.5001"/>
</g>
<!-- AlertService -->
<g id="node24" class="node">
<title>AlertService</title>
<ellipse fill="#fdb462" stroke="#000000" cx="721" cy="-104" rx="59.6646" ry="18"/>
<text text-anchor="middle" x="721" y="-99.8" font-family="Times,serif" font-size="14.00" fill="#000000">AlertService</text>
</g>
<!-- AlertService&#45;&gt;AppModule -->
<g id="edge23" class="edge">
<title>AlertService&#45;&gt;AppModule</title>
<path fill="none" stroke="#000000" d="M721,-122.0267C721,-142.7672 721,-174 721,-174 721,-174 1983.1375,-174 1983.1375,-174"/>
<polygon fill="#000000" stroke="#000000" points="1983.1375,-177.5001 1993.1375,-174 1983.1374,-170.5001 1983.1375,-177.5001"/>
</g>
<!-- AuthGuard -->
<g id="node25" class="node">
<title>AuthGuard</title>
<ellipse fill="#fdb462" stroke="#000000" cx="589" cy="-104" rx="54.4566" ry="18"/>
<text text-anchor="middle" x="589" y="-99.8" font-family="Times,serif" font-size="14.00" fill="#000000">AuthGuard</text>
</g>
<!-- AuthGuard&#45;&gt;AppModule -->
<g id="edge24" class="edge">
<title>AuthGuard&#45;&gt;AppModule</title>
<path fill="none" stroke="#000000" d="M589,-122.1686C589,-143.498 589,-176 589,-176 589,-176 1983.2835,-176 1983.2835,-176"/>
<polygon fill="#000000" stroke="#000000" points="1983.2835,-179.5001 1993.2835,-176 1983.2834,-172.5001 1983.2835,-179.5001"/>
</g>
<!-- AuthenticationService -->
<g id="node26" class="node">
<title>AuthenticationService</title>
<ellipse fill="#fdb462" stroke="#000000" cx="419" cy="-104" rx="97.2683" ry="18"/>
<text text-anchor="middle" x="419" y="-99.8" font-family="Times,serif" font-size="14.00" fill="#000000">AuthenticationService</text>
</g>
<!-- AuthenticationService&#45;&gt;AppModule -->
<g id="edge25" class="edge">
<title>AuthenticationService&#45;&gt;AppModule</title>
<path fill="none" stroke="#000000" d="M419,-122.1554C419,-144.3519 419,-179 419,-179 419,-179 1983.0191,-179 1983.0191,-179"/>
<polygon fill="#000000" stroke="#000000" points="1983.0191,-182.5001 1993.0191,-179 1983.0191,-175.5001 1983.0191,-182.5001"/>
</g>
<!-- ConfirmService -->
<g id="node27" class="node">
<title>ConfirmService</title>
<ellipse fill="#fdb462" stroke="#000000" cx="231" cy="-104" rx="72.9295" ry="18"/>
<text text-anchor="middle" x="231" y="-99.8" font-family="Times,serif" font-size="14.00" fill="#000000">ConfirmService</text>
</g>
<!-- ConfirmService&#45;&gt;AppModule -->
<g id="edge26" class="edge">
<title>ConfirmService&#45;&gt;AppModule</title>
<path fill="none" stroke="#000000" d="M231,-122.0908C231,-145.1328 231,-182 231,-182 231,-182 1983.0629,-182 1983.0629,-182"/>
<polygon fill="#000000" stroke="#000000" points="1983.0629,-185.5001 1993.0629,-182 1983.0628,-178.5001 1983.0629,-185.5001"/>
</g>
<!-- UserService -->
<g id="node28" class="node">
<title>UserService</title>
<ellipse fill="#fdb462" stroke="#000000" cx="82" cy="-104" rx="58.4415" ry="18"/>
<text text-anchor="middle" x="82" y="-99.8" font-family="Times,serif" font-size="14.00" fill="#000000">UserService</text>
</g>
<!-- UserService&#45;&gt;AppModule -->
<g id="edge27" class="edge">
<title>UserService&#45;&gt;AppModule</title>
<path fill="none" stroke="#000000" d="M82,-122.3802C82,-146.2785 82,-185 82,-185 82,-185 1983.3053,-185 1983.3053,-185"/>
<polygon fill="#000000" stroke="#000000" points="1983.3053,-188.5001 1993.3053,-185 1983.3053,-181.5001 1983.3053,-188.5001"/>
</g>
</g>
</svg>
